<?xml version="1.0" standalone="no"?>
<!DOCTYPE svg PUBLIC "-//W3C//DTD SVG 1.1//EN" "http://www.w3.org/Graphics/SVG/1.1/DTD/svg11.dtd" >
<svg>
<metadata>
Created by FontForge 20090622 at Thu Sep 28 21:22:10 2017
 By deploy user
&#194;&#169; 1990, 1991, 1998, 2002 Adobe Systems Incorporated. All rights reserved. &#194;&#169; 1990, 2002 The Monotype Corporation PLC. All rights reserved.
</metadata>
<defs>
<font id="GillSansStd-ExtraBold" horiz-adv-x="333" >
  <font-face 
    font-family="Gill Sans Std ExtraBold"
    font-weight="800"
    font-stretch="normal"
    units-per-em="1000"
    panose-1="2 11 9 2 2 1 4 2 2 3"
    ascent="682"
    descent="-318"
    x-height="528"
    cap-height="682"
    bbox="-200 -250 1251 922"
    underline-thickness="50"
    underline-position="-50"
    unicode-range="U+0020-U+FB02"
  />
<missing-glyph horiz-adv-x="500" 
d="M0 0v700h500v-700h-500zM250 395l170 255h-340zM280 350l170 -255v510zM80 50h340l-170 255zM50 605v-510l170 255z" />
    <glyph glyph-name="f_i" unicode="fi" horiz-adv-x="760" 
d="M489 0v528h208v-528h-208zM593 706q29 0 49.5 -20.5t20.5 -49.5t-20.5 -49.5t-49.5 -20.5t-49.5 20.5t-20.5 49.5t20.5 49.5t49.5 20.5zM95 0v331h-84v132h84v15q0 59 20 102t55 66.5t74.5 34t85.5 10.5q83 0 149 -21v-142q-48 27 -96 27q-80 0 -80 -77v-15h103v-132
h-103v-331h-208z" />
    <glyph glyph-name="f_l" unicode="fl" horiz-adv-x="760" 
d="M95 0v331h-84v132h84q-3 65 17 111.5t56 71t76 35t86 10.5q100 0 158 -51v42h208v-682h-208v467q0 42 -28 65t-72 23q-93 0 -84 -92h101v-132h-102v-331h-208z" />
    <glyph glyph-name=".notdef" horiz-adv-x="500" 
d="M0 0v700h500v-700h-500zM250 395l170 255h-340zM280 350l170 -255v510zM80 50h340l-170 255zM50 605v-510l170 255z" />
    <glyph glyph-name=".null" horiz-adv-x="0" 
 />
    <glyph glyph-name="nonmarkingreturn" 
 />
    <glyph glyph-name="space" unicode=" " 
 />
    <glyph glyph-name="exclam" unicode="!" horiz-adv-x="365" 
d="M183 -9q-51 0 -86.5 36t-35.5 87q0 87 90 118q-90 176 -90 293q0 71 36 118.5t86 47.5t86 -47.5t36 -118.5q0 -117 -90 -293q90 -31 90 -118q0 -51 -35.5 -87t-86.5 -36z" />
    <glyph glyph-name="quotedbl" unicode="&#x22;" horiz-adv-x="500" 
d="M278 716h198v-118l-32 -145h-134l-32 145v118zM24 716h198v-118l-32 -145h-134l-32 145v118z" />
    <glyph glyph-name="numbersign" unicode="#" horiz-adv-x="667" 
d="M275 397l-25 -121h147l25 121h-147zM33 156v120h97l25 121h-122v120h148l37 176h120l-37 -176h147l37 176h120l-37 -176h71v-120h-97l-25 -121h122v-120h-148l-37 -176h-120l37 176h-147l-37 -176h-120l37 176h-71z" />
    <glyph glyph-name="dollar" unicode="$" horiz-adv-x="615" 
d="M278 109v159q-239 59 -239 209q0 84 65 140t174 57v24h67v-27q105 -12 190 -65v-153q-110 87 -190 100v-142q124 -32 181.5 -83.5t57.5 -131.5q0 -82 -60.5 -139t-178.5 -65v-67h-67v67q-117 5 -211 44v145q112 -66 211 -72zM345 253v-143q91 9 91 68q0 29 -20.5 46
t-70.5 29zM278 426v134q-42 0 -66.5 -17.5t-24.5 -45.5q0 -49 91 -71z" />
    <glyph glyph-name="percent" unicode="%" horiz-adv-x="917" 
d="M540 176q0 81 49 130.5t130 49.5q80 0 129 -49.5t49 -130.5t-49 -130.5t-129 -49.5q-81 0 -130 49.5t-49 130.5zM661 176q0 -80 58 -80q57 0 57 80t-57 80q-58 0 -58 -80zM19 511q0 81 49 130.5t130 49.5q80 0 129 -49.5t49 -130.5t-49 -130.5t-129 -49.5
q-81 0 -130 49.5t-49 130.5zM140 511q0 -80 58 -80q57 0 57 80t-57 80q-58 0 -58 -80zM196 -24l411 731h107l-410 -731h-108z" />
    <glyph glyph-name="ampersand" unicode="&#x26;" horiz-adv-x="844" 
d="M619 352h172q-55 -105 -133 -170q55 -45 91 -45q34 0 59 24l15 -14q-66 -85 -106 -120.5t-79 -35.5q-20 0 -42.5 12.5t-35.5 23.5t-38 35q-102 -71 -232 -71q-107 0 -169 47.5t-62 129.5q0 111 142 184q-46 42 -64.5 76t-18.5 75q0 83 68.5 135.5t177.5 52.5
q107 0 165.5 -51t58.5 -121q0 -108 -121 -159l91 -86q28 25 61 78zM424 154l-131 112q-59 -30 -59 -80q0 -32 25 -54t62 -22q50 0 103 44zM376 438q73 34 73 81q0 28 -21 46t-55 18q-31 0 -51.5 -15.5t-20.5 -39.5q0 -39 75 -90z" />
    <glyph glyph-name="quotesingle" unicode="'" horiz-adv-x="281" 
d="M42 716h198v-118l-32 -145h-134l-32 145v118z" />
    <glyph glyph-name="parenleft" unicode="(" horiz-adv-x="458" 
d="M46 233q0 132 68.5 242.5t207.5 215.5h156q-119 -119 -171.5 -228.5t-52.5 -229.5t52.5 -231t171.5 -230h-156q-138 104 -207 216.5t-69 244.5z" />
    <glyph glyph-name="parenright" unicode=")" horiz-adv-x="458" 
d="M412 233q0 -132 -69 -244.5t-207 -216.5h-156q119 119 171.5 230t52.5 231t-52.5 229.5t-171.5 228.5h156q139 -105 207.5 -215.5t68.5 -242.5z" />
    <glyph glyph-name="asterisk" unicode="*" horiz-adv-x="635" 
d="M288 472l-39 102q-26 68 -24 85q3 26 56 31q15 1 37 1q74 0 87 -19t-13 -85l-45 -115q14 -6 24 -18l104 80q43 33 61 33q28 0 45.5 -52t17.5 -91q0 -19 -14.5 -26.5t-53.5 -4.5l-144 10q-2 -17 -10 -31l100 -67q64 -43 64 -60q0 -22 -51 -61t-78 -39q-13 0 -21.5 14.5
t-19.5 55.5l-35 126q-18 -3 -37 0l-34 -126q-18 -70 -40 -70q-24 0 -77.5 38.5t-53.5 60.5q0 17 37 43l128 85q-9 17 -10 31l-140 -10q-44 -3 -58.5 4.5t-14.5 26.5q0 36 19 89.5t45 53.5q19 0 48 -24l117 -89q8 11 23 18z" />
    <glyph glyph-name="plus" unicode="+" horiz-adv-x="667" 
d="M56 405h208v208h139v-208h208v-139h-208v-208h-139v208h-208v139z" />
    <glyph glyph-name="comma" unicode="," horiz-adv-x="365" 
d="M20 -177v17q103 50 120 146q-44 12 -69.5 43.5t-25.5 73.5q0 53 36 88.5t89 35.5q64 0 105.5 -46t41.5 -117q0 -47 -20 -90.5t-56 -78.5t-94 -55t-127 -17z" />
    <glyph glyph-name="hyphen" unicode="-" horiz-adv-x="448" 
d="M34 174v181h380v-181h-380z" />
    <glyph glyph-name="period" unicode="." horiz-adv-x="365" 
d="M183 236q51 0 86.5 -35.5t35.5 -86.5t-35.5 -87t-86.5 -36t-87 36t-36 87t36 86.5t87 35.5z" />
    <glyph glyph-name="slash" unicode="/" horiz-adv-x="281" 
d="M154 682h141l-169 -832h-140z" />
    <glyph glyph-name="zero" unicode="0" horiz-adv-x="677" 
d="M46 341q0 158 80 254t213 96q132 0 212 -96t80 -254t-80 -254t-212 -96q-133 0 -213 96t-80 254zM235 341q0 -179 104 -179q103 0 103 179t-103 179q-104 0 -104 -179z" />
    <glyph glyph-name="one" unicode="1" horiz-adv-x="677" 
d="M226 0v682h226v-682h-226z" />
    <glyph glyph-name="two" unicode="2" horiz-adv-x="677" 
d="M617 167v-167h-561v10l139 139.5t87.5 99t54.5 85.5t14 73q0 48 -31.5 79.5t-80.5 31.5q-81 0 -150 -92v181q60 44 110 64t120 20q63 0 112 -21t75.5 -55t39.5 -71t13 -74q0 -146 -163 -303h221z" />
    <glyph glyph-name="three" unicode="3" horiz-adv-x="677" 
d="M124 518v136q82 37 175 37q110 0 177.5 -53t67.5 -140q0 -95 -90 -146q100 -50 100 -159q0 -78 -58 -140t-172 -62q-110 0 -213 56v163q75 -61 136 -61q39 0 63 20t24 53q0 34 -26.5 54.5t-71.5 20.5q-20 0 -47 -4v117q13 -1 26 -1q56 0 88.5 20.5t32.5 54.5q0 31 -27 51
t-70 20q-58 0 -115 -37z" />
    <glyph glyph-name="four" unicode="4" horiz-adv-x="677" 
d="M325 0v137h-289v154l305 398h192v-426h112v-126h-112v-137h-208zM131 263h194v253h-2z" />
    <glyph glyph-name="five" unicode="5" horiz-adv-x="677" 
d="M590 682v-158h-191l-29 -121q96 -3 143 -57t47 -133q0 -104 -70.5 -163t-195.5 -59q-99 0 -193 31v151q61 -18 106 -18q53 0 83 20t30 56q0 38 -30.5 59.5t-83.5 21.5q-38 0 -79 -10l91 380h372z" />
    <glyph glyph-name="six" unicode="6" horiz-adv-x="677" 
d="M428 691l182 -120q-129 -31 -203 -103q102 -8 164.5 -69t62.5 -153q0 -43 -15.5 -85.5t-47 -81.5t-89.5 -63.5t-135 -24.5q-147 0 -223 82.5t-76 204.5q0 147 108 265t272 148zM445 246q0 47 -28 74.5t-75 27.5q-46 0 -75.5 -28.5t-29.5 -73.5q0 -44 28.5 -70.5
t75.5 -26.5q46 0 75 26.5t29 70.5z" />
    <glyph glyph-name="seven" unicode="7" horiz-adv-x="677" 
d="M98 0l257 515h-282v167h610v-14l-334 -668h-251z" />
    <glyph glyph-name="eight" unicode="8" horiz-adv-x="677" 
d="M165 347q-102 50 -102 152q0 86 69.5 139t207.5 53q134 0 204.5 -53t70.5 -139q0 -101 -103 -152q56 -18 86.5 -58.5t30.5 -96.5q0 -85 -68 -143t-222 -58q-148 0 -219 55.5t-71 145.5q0 56 30 96.5t86 58.5zM339 111q40 0 70.5 26.5t30.5 67.5q0 45 -26.5 69.5
t-74.5 24.5q-46 0 -73.5 -25t-27.5 -69q0 -41 30 -67.5t71 -26.5zM429 492q0 40 -25 64t-65 24q-41 0 -65.5 -24t-24.5 -64q0 -39 24.5 -63.5t65.5 -24.5q39 0 64.5 24.5t25.5 63.5z" />
    <glyph glyph-name="nine" unicode="9" horiz-adv-x="677" 
d="M292 -9l-236 125q149 32 223 115q-104 11 -166.5 72.5t-62.5 151.5q0 97 75.5 166.5t212.5 69.5q78 0 137.5 -24.5t93.5 -65.5t50.5 -89t16.5 -100q0 -121 -88.5 -237.5t-255.5 -183.5zM239 437q0 -43 29 -72t73 -29q45 0 75.5 29.5t30.5 72.5q0 42 -30 68.5t-75 26.5
t-74 -27t-29 -69z" />
    <glyph glyph-name="colon" unicode=":" horiz-adv-x="365" 
d="M183 560q51 0 86.5 -35.5t35.5 -86.5t-35.5 -87t-86.5 -36t-87 36t-36 87t36 86.5t87 35.5zM183 236q51 0 86.5 -35.5t35.5 -86.5t-35.5 -87t-86.5 -36t-87 36t-36 87t36 86.5t87 35.5z" />
    <glyph glyph-name="semicolon" unicode=";" horiz-adv-x="365" 
d="M20 -177v17q103 50 120 146q-44 12 -69.5 43.5t-25.5 73.5q0 53 36 88.5t89 35.5q64 0 105.5 -46t41.5 -117q0 -47 -20 -90.5t-56 -78.5t-94 -55t-127 -17zM183 560q51 0 86.5 -35.5t35.5 -86.5t-35.5 -87t-86.5 -36t-87 36t-36 87t36 86.5t87 35.5z" />
    <glyph glyph-name="less" unicode="&#x3c;" horiz-adv-x="667" 
d="M56 272v126l554 230v-150l-363 -143l363 -143v-150z" />
    <glyph glyph-name="equal" unicode="=" horiz-adv-x="667" 
d="M56 287h555v-139h-555v139zM56 524h555v-139h-555v139z" />
    <glyph glyph-name="greater" unicode="&#x3e;" horiz-adv-x="667" 
d="M611 272l-554 -230v150l363 143l-363 143v150l554 -230v-126z" />
    <glyph glyph-name="question" unicode="?" horiz-adv-x="396" 
d="M78 114q0 85 86 117q-38 36 -38 75q0 23 17 66t17 65q0 27 -21 46t-60 19q-23 0 -56 -10l59 180q54 19 104 19q74 0 124 -41.5t50 -112.5q0 -39 -23 -78.5t-50 -67.5t-50 -62.5t-23 -63.5q0 -16 6 -24t14.5 -9.5t23.5 -9t28 -20.5q36 -36 36 -88q0 -51 -35.5 -87
t-86.5 -36t-86.5 36t-35.5 87z" />
    <glyph glyph-name="at" unicode="@" horiz-adv-x="740" 
d="M565 506l-61 -386q-4 -19 -0.5 -28.5t17.5 -9.5q15 0 38 13.5t48.5 39.5t43 76t17.5 112q0 128 -73.5 203t-198.5 75q-144 0 -234 -99t-90 -257q0 -154 87 -247.5t230 -93.5q137 0 253 91h110q-58 -75 -157 -124t-204 -49q-172 0 -287.5 121t-115.5 302q0 57 13 115
t43.5 117.5t76 104.5t117 73.5t158.5 28.5q88 0 157.5 -30.5t112 -81.5t64.5 -114.5t22 -134.5q0 -79 -28.5 -144t-71 -102t-85.5 -57t-78 -20q-59 0 -76 58q-59 -58 -117 -58q-71 0 -115 58t-44 152q0 75 25.5 146t74.5 119t109 48q36 0 62 -16.5t53 -55.5l9 55h95z
M245 183q0 -50 17.5 -78t49.5 -28q28 0 55 27q26 26 43 100t17 144q0 91 -64 91q-54 0 -86 -76.5t-32 -179.5z" />
    <glyph glyph-name="A" unicode="A" horiz-adv-x="896" 
d="M12 0l311 682h250l311 -682h-237l-45 111h-308l-45 -111h-237zM343 234h209l-104 270z" />
    <glyph glyph-name="B" unicode="B" horiz-adv-x="781" 
d="M72 0v682h399q117 0 171 -48.5t54 -116.5q0 -95 -107 -142q147 -52 147 -181q0 -84 -58.5 -139t-151.5 -55h-454zM311 104h72q122 0 122 99q0 44 -29.5 68t-86.5 24h-78v-191zM311 399h69q55 0 81.5 25t26.5 65q0 89 -108 89h-69v-179z" />
    <glyph glyph-name="C" unicode="C" horiz-adv-x="760" 
d="M687 233v-182q-107 -60 -254 -60q-82 0 -149 21.5t-109.5 56t-71.5 80.5t-41 93t-12 96q0 154 106 253.5t289 99.5q135 0 236 -46v-199q-99 63 -198 63q-90 0 -142 -45t-52 -123q0 -77 53 -122.5t143 -45.5q95 0 202 60z" />
    <glyph glyph-name="D" unicode="D" horiz-adv-x="833" 
d="M73 0v682h342q95 0 168.5 -32t116 -84.5t64 -112t21.5 -121.5q0 -61 -19 -118t-57 -106t-103 -78.5t-148 -29.5h-385zM312 162h63q87 0 129 44t42 135q0 77 -40.5 128t-129.5 51h-64v-358z" />
    <glyph glyph-name="E" unicode="E" horiz-adv-x="635" 
d="M72 0v682h511v-144h-272v-120h249v-144h-249v-130h276v-144h-515z" />
    <glyph glyph-name="F" unicode="F" horiz-adv-x="603" 
d="M71 0v682h498v-144h-259v-124h243v-144h-243v-270h-239z" />
    <glyph glyph-name="G" unicode="G" horiz-adv-x="781" 
d="M713 386v-364q-135 -32 -268 -32q-84 0 -153 21.5t-113.5 56t-74.5 80.5t-42.5 92t-12.5 93q0 159 114.5 258.5t298.5 99.5q123 0 238 -46v-171q-107 58 -203 58q-94 0 -151.5 -53.5t-57.5 -140.5q0 -93 66 -142.5t176 -33.5v80h-85v144h268z" />
    <glyph glyph-name="H" unicode="H" horiz-adv-x="885" 
d="M72 0v682h239v-248h263v248h239v-682h-239v258h-263v-258h-239z" />
    <glyph glyph-name="I" unicode="I" horiz-adv-x="385" 
d="M73 0v682h239v-682h-239z" />
    <glyph glyph-name="J" unicode="J" horiz-adv-x="406" 
d="M329 682v-647q0 -105 -31 -164q-28 -53 -79 -76t-103 -23q-49 0 -80 8l-91 199q19 -3 44 -3q23 0 49.5 10t35.5 25q10 16 13 30t3 49v592h239z" />
    <glyph glyph-name="K" unicode="K" horiz-adv-x="833" 
d="M74 0v682h239v-309l273 309h251l-278 -317l288 -365h-285l-247 319h-2v-319h-239z" />
    <glyph glyph-name="L" unicode="L" horiz-adv-x="583" 
d="M73 0v682h239v-511h268v-171h-507z" />
    <glyph glyph-name="M" unicode="M" horiz-adv-x="979" 
d="M305 366l6 -366h-239v682h214l204 -276l204 276h214v-682h-239l6 366l-2 2l-183 -250l-183 250z" />
    <glyph glyph-name="N" unicode="N" horiz-adv-x="927" 
d="M75 0v682h204l345 -350l-13 350h242v-682h-204l-345 350l13 -350h-242z" />
    <glyph glyph-name="O" unicode="O" horiz-adv-x="833" 
d="M46 341q0 70 23 131.5t67 111t116.5 78.5t164.5 29q93 0 166 -29.5t116.5 -79.5t66 -111.5t22.5 -129.5q0 -67 -22 -128t-65.5 -111.5t-116.5 -80.5t-167 -30q-119 0 -204.5 48.5t-126 126.5t-40.5 175zM285 341q0 -69 35.5 -109.5t96.5 -40.5t96.5 40.5t35.5 109.5
t-35.5 109.5t-96.5 40.5t-96.5 -40.5t-35.5 -109.5z" />
    <glyph glyph-name="P" unicode="P" horiz-adv-x="689" 
d="M70 0v682h352q139 0 205 -61.5t66 -153.5q0 -42 -14.5 -80t-46 -71.5t-89 -53t-134.5 -19.5h-100v-243h-239zM309 370h59q105 0 105 94q0 46 -25 68.5t-81 22.5h-58v-185z" />
    <glyph glyph-name="Q" unicode="Q" horiz-adv-x="854" 
d="M859 -47l-156 -144q-68 15 -192.5 65.5t-202.5 93.5q-261 144 -261 376q0 65 22 124.5t65.5 110.5t118 81.5t170.5 30.5q95 0 170 -29.5t121 -79.5t70 -112.5t24 -131.5q0 -190 -176 -292q118 -61 227 -93zM286 337q0 -66 39.5 -108t102.5 -42q64 0 102.5 41.5
t38.5 110.5q0 68 -39.5 110t-104.5 42q-63 0 -101 -42t-38 -112z" />
    <glyph glyph-name="R" unicode="R" horiz-adv-x="813" 
d="M73 0v682h389q131 0 197 -54.5t66 -140.5q0 -110 -110 -158q34 -15 57.5 -48t54.5 -101l81 -180h-235l-43 101q-42 97 -74.5 140.5t-78.5 43.5h-65v-285h-239zM312 390h65q58 0 90 23.5t32 68.5q0 90 -117 90h-70v-182z" />
    <glyph glyph-name="S" unicode="S" horiz-adv-x="573" 
d="M50 38v185q100 -68 186 -68q32 0 50 13t18 34q0 20 -26 38t-63.5 37t-75 43.5t-63.5 67t-26 98.5q0 35 13 69t39.5 65.5t75.5 51t113 19.5q118 0 215 -73v-180q-96 89 -170 89q-30 0 -48 -12.5t-18 -34.5t27 -42t66 -39.5t77.5 -43.5t65.5 -65.5t27 -95.5
q0 -83 -61.5 -143t-185.5 -60q-135 0 -236 47z" />
    <glyph glyph-name="T" unicode="T" horiz-adv-x="719" 
d="M240 511h-213v171h665v-171h-213v-511h-239v511z" />
    <glyph glyph-name="U" unicode="U" horiz-adv-x="833" 
d="M782 682v-369q0 -152 -93 -237t-268 -85q-177 0 -273.5 78.5t-96.5 218.5v394h239v-364q0 -70 34 -106t91 -36q58 0 93 38.5t35 115.5v352h239z" />
    <glyph glyph-name="V" unicode="V" horiz-adv-x="802" 
d="M300 0l-287 682h258l153 -424h2l146 424h218l-283 -682h-207z" />
    <glyph glyph-name="W" unicode="W" horiz-adv-x="979" 
d="M253 0l-240 682h224l79 -306h2l85 306h173l90 -306h2l74 306h224l-231 -682h-143l-100 338h-2l-94 -338h-143z" />
    <glyph glyph-name="X" unicode="X" horiz-adv-x="917" 
d="M27 0l294 338l-283 344h298l139 -202l146 202h263l-280 -322l298 -360h-298l-153 216l-161 -216h-263z" />
    <glyph glyph-name="Y" unicode="Y" horiz-adv-x="802" 
d="M281 0v304l-265 378h285l130 -226l127 226h234l-272 -387v-295h-239z" />
    <glyph glyph-name="Z" unicode="Z" horiz-adv-x="781" 
d="M36 0l349 520h-358v162h731l-349 -520h336v-162h-709z" />
    <glyph glyph-name="bracketleft" unicode="[" horiz-adv-x="438" 
d="M83 -228v919h354v-120h-146v-679h146v-120h-354z" />
    <glyph glyph-name="backslash" unicode="\" horiz-adv-x="281" 
d="M127 682l168 -832h-140l-169 832h141z" />
    <glyph glyph-name="bracketright" unicode="]" horiz-adv-x="438" 
d="M355 -228h-354v120h146v679h-146v120h354v-919z" />
    <glyph glyph-name="asciicircum" unicode="^" horiz-adv-x="656" 
d="M260 728h136l200 -397h-173l-95 240l-94 -240h-173z" />
    <glyph glyph-name="underscore" unicode="_" horiz-adv-x="500" 
d="M-6 -75h512v-50h-512v50z" />
    <glyph glyph-name="grave" unicode="`" 
d="M263 584h-109l-198 163h216z" />
    <glyph glyph-name="a" unicode="a" horiz-adv-x="625" 
d="M613 134l-38 -141q-79 -5 -121 5.5t-66 43.5q-75 -51 -173 -51q-84 0 -126 37t-42 92q0 50 40 90q30 30 138 59t133 48q-1 36 -20 50.5t-63 14.5q-52 0 -98.5 -20t-112.5 -70v155q110 90 249 90q101 0 169 -45t68 -138v-150q0 -42 10.5 -55.5t52.5 -14.5zM358 154v75
q-17 -12 -59 -24t-68 -28.5t-26 -48.5q0 -26 16.5 -42.5t42.5 -16.5q53 0 99 36q-5 15 -5 49z" />
    <glyph glyph-name="b" unicode="b" horiz-adv-x="708" 
d="M64 0v682h208v-167q59 22 120 22q120 0 198 -78t78 -197q0 -47 -16.5 -92t-48 -83.5t-85.5 -62.5t-122 -24h-332zM272 357v-182q38 -7 67 -7q55 0 88 27t33 73q0 45 -32 73t-83 28q-36 0 -73 -12z" />
    <glyph glyph-name="c" unicode="c" horiz-adv-x="552" 
d="M507 195v-171q-91 -33 -168 -33q-133 0 -216.5 75.5t-83.5 194.5q0 51 17.5 99t52 88t92.5 64.5t132 24.5q89 0 170 -27v-175q-68 31 -132 31q-55 0 -89.5 -28.5t-34.5 -74.5q0 -45 36 -73t94 -28q52 0 130 33z" />
    <glyph glyph-name="d" unicode="d" horiz-adv-x="698" 
d="M641 682v-682h-333q-122 0 -195 73.5t-73 194.5t74 195t194 74q62 0 125 -22v167h208zM433 180v175q-42 11 -74 11q-50 0 -80.5 -27.5t-30.5 -72.5q0 -43 32.5 -69t86.5 -26q25 0 66 9z" />
    <glyph glyph-name="e" unicode="e" horiz-adv-x="615" 
d="M543 180l38 -86q-89 -103 -244 -103q-134 0 -217 78.5t-83 196.5q0 116 78 193.5t195 77.5q124 0 202.5 -89t61.5 -223h-345q1 -41 43.5 -73t101.5 -32q82 0 169 60zM221 303h182q-2 118 -91 118q-43 0 -69 -29.5t-22 -88.5z" />
    <glyph glyph-name="f" unicode="f" horiz-adv-x="417" 
d="M95 0v331h-81v132h81v31q0 94 56 145.5t156 51.5q46 0 90 -11v-138q-21 7 -35 7q-59 0 -59 -71v-15h90v-132h-90v-331h-208z" />
    <glyph glyph-name="g" unicode="g" horiz-adv-x="604" 
d="M588 537v-113h-79q32 -47 32 -102q0 -67 -48 -115q-34 -34 -77.5 -46.5t-67 -17t-23.5 -22.5t34.5 -24.5t87.5 -19.5t85 -45q39 -39 39 -92q0 -72 -72 -121.5t-210 -49.5q-258 0 -258 134q0 43 36 76.5t95 41.5v2q-44 19 -44 62q0 49 62 72q-128 49 -128 171
q0 83 69.5 146t211.5 63h255zM210 331q0 -32 24.5 -53.5t60.5 -21.5q38 0 63 22t25 55t-24.5 54t-62.5 21q-37 0 -61.5 -22t-24.5 -55zM197 -82q0 -68 100 -68q107 0 107 65q0 33 -29 53.5t-78 20.5q-45 0 -72.5 -19.5t-27.5 -51.5z" />
    <glyph glyph-name="h" unicode="h" horiz-adv-x="677" 
d="M60 0v682h208v-221q70 76 169 76q82 0 131.5 -47.5t49.5 -146.5v-343h-208v288q0 37 -16 57.5t-45 20.5q-44 0 -81 -52v-314h-208z" />
    <glyph glyph-name="i" unicode="i" 
d="M63 0v528h208v-528h-208zM167 706q29 0 49.5 -20.5t20.5 -49.5t-20.5 -49.5t-49.5 -20.5t-49.5 20.5t-20.5 49.5t20.5 49.5t49.5 20.5z" />
    <glyph glyph-name="j" unicode="j" 
d="M272 528v-566q0 -85 -57 -145.5t-151 -52.5l-71 132q43 17 57 40.5t14 77.5v514h208zM168 706q29 0 49.5 -20.5t20.5 -49.5t-20.5 -49.5t-49.5 -20.5t-49.5 20.5t-20.5 49.5t20.5 49.5t49.5 20.5z" />
    <glyph glyph-name="k" unicode="k" horiz-adv-x="708" 
d="M61 0v682h208v-336l171 182h257l-221 -225l252 -303h-261l-196 244h-2v-244h-208z" />
    <glyph glyph-name="l" unicode="l" 
d="M63 0v682h208v-682h-208z" />
    <glyph glyph-name="m" unicode="m" horiz-adv-x="1010" 
d="M61 0v528h208v-70q72 79 165 79q55 0 92.5 -22t66.5 -72q82 94 188 94q84 0 128 -57t44 -142v-338h-208v303q0 29 -15 46t-40 17q-47 0 -79 -54v-312h-208v299q0 30 -15.5 48.5t-42.5 18.5q-42 0 -76 -54v-312h-208z" />
    <glyph glyph-name="n" unicode="n" horiz-adv-x="677" 
d="M61 0v528h208v-69q43 42 82 60t88 18q86 0 133.5 -50t47.5 -138v-349h-208v289q0 77 -60 77q-49 0 -83 -57v-309h-208z" />
    <glyph glyph-name="o" unicode="o" horiz-adv-x="698" 
d="M38 264q0 53 18.5 100.5t55 87t97.5 62.5t140 23q81 0 143 -24.5t97.5 -64.5t53 -87t17.5 -97q0 -114 -80 -193.5t-229 -79.5q-81 0 -143.5 24t-98 64.5t-53.5 87t-18 97.5zM246 264q0 -45 28.5 -73.5t74.5 -28.5t74.5 28.5t28.5 73.5t-28.5 73.5t-74.5 28.5t-74.5 -28.5
t-28.5 -73.5z" />
    <glyph glyph-name="p" unicode="p" horiz-adv-x="698" 
d="M263 528v-51q73 60 154 60q104 0 172.5 -77t68.5 -193q0 -123 -75.5 -199.5t-195.5 -76.5q-64 0 -124 23v-242h-208v756h208zM263 350v-171q43 -17 78 -17q49 0 79 30t30 77t-30 75.5t-79 28.5q-36 0 -78 -23z" />
    <glyph glyph-name="q" unicode="q" horiz-adv-x="699" 
d="M639 528v-756h-208v242q-59 -23 -125 -23q-119 0 -193.5 75t-74.5 196q0 118 72.5 192t188.5 74h340zM431 173v173q-35 11 -71 11q-53 0 -83.5 -27t-30.5 -73q0 -43 30.5 -69t80.5 -26q35 0 74 11z" />
    <glyph glyph-name="r" unicode="r" horiz-adv-x="542" 
d="M62 528h188v-141h2q56 150 169 150q58 0 128 -41l-92 -210q-47 44 -89 44q-37 0 -63 -31.5t-35 -79.5v-219h-208v528z" />
    <glyph glyph-name="s" unicode="s" horiz-adv-x="500" 
d="M442 494v-139q-87 53 -145 53q-22 0 -35.5 -10t-13.5 -26q0 -18 18 -30t42 -19t57.5 -23.5t56.5 -39.5q47 -47 47 -109q0 -60 -50 -110t-153 -50q-138 0 -226 51v150q96 -72 166 -72q55 0 55 41q0 18 -23 33t-55.5 29t-64.5 32t-55 51t-23 76q0 61 50 108t163 47
q100 0 189 -43z" />
    <glyph glyph-name="t" unicode="t" horiz-adv-x="531" 
d="M485 209v-159q-80 -59 -182 -59q-108 0 -164 56q-41 41 -41 140v209h-92v65l253 225h47v-158h167v-132h-167v-158q0 -37 15 -53.5t47 -16.5q54 0 117 41z" />
    <glyph glyph-name="u" unicode="u" horiz-adv-x="698" 
d="M610 528v-334q0 -37 20.5 -51t57.5 -1l-54 -142q-41 -9 -90 -9q-60 0 -90.5 21t-43.5 70q-73 -91 -180 -91q-76 0 -128 47t-52 153v337h208v-286q0 -42 15 -61t47 -19q44 0 82 54v312h208z" />
    <glyph glyph-name="v" unicode="v" horiz-adv-x="656" 
d="M246 0l-234 528h223l110 -281l111 281h189l-228 -528h-171z" />
    <glyph glyph-name="w" unicode="w" horiz-adv-x="927" 
d="M209 0l-197 528h212l81 -258h2l95 258h133l94 -258h2l76 258h208l-185 -528h-154l-107 293l-108 -293h-152z" />
    <glyph glyph-name="x" unicode="x" horiz-adv-x="688" 
d="M30 0l200 251l-209 277h258l85 -136l87 136h209l-194 -245l214 -283h-259l-90 149l-92 -149h-209z" />
    <glyph glyph-name="y" unicode="y" horiz-adv-x="635" 
d="M71 -228l149 305l-209 451h224l97 -259l106 259h195l-365 -756h-197z" />
    <glyph glyph-name="z" unicode="z" horiz-adv-x="615" 
d="M25 0l233 371h-216v157h539v-17l-229 -354h221v-157h-548z" />
    <glyph glyph-name="braceleft" unicode="{" horiz-adv-x="385" 
d="M12 315q50 -4 72.5 26t22.5 85v88q0 108 49 146.5t156 38.5h65v-160h-21q-40 0 -56 -20.5t-16 -76.5q0 -103 -16.5 -146.5t-70.5 -63.5q54 -20 70.5 -63.5t16.5 -145.5q0 -56 16 -77.5t56 -21.5h21v-160h-65q-107 0 -156 38.5t-49 146.5v90q0 118 -95 110v166z" />
    <glyph glyph-name="bar" unicode="|" horiz-adv-x="635" 
d="M248 750h140v-1000h-140v1000z" />
    <glyph glyph-name="braceright" unicode="}" horiz-adv-x="385" 
d="M373 315v-166q-95 8 -95 -110v-90q0 -108 -49 -146.5t-156 -38.5h-65v160h21q40 0 56 21.5t16 77.5q0 102 16.5 145.5t70.5 63.5q-54 20 -70.5 63.5t-16.5 146.5q0 56 -16 76.5t-56 20.5h-21v160h65q107 0 156 -38.5t49 -146.5v-88q0 -55 22.5 -85t72.5 -26z" />
    <glyph glyph-name="asciitilde" unicode="~" horiz-adv-x="656" 
d="M604 458v-141q-82 -73 -157 -73q-49 0 -130.5 40t-113.5 40q-75 0 -152 -77v142q81 71 162 71q48 0 128.5 -40t115.5 -40q65 0 147 78z" />
    <glyph glyph-name="uni00A0" unicode="&#xa0;" 
 />
    <glyph glyph-name="exclamdown" unicode="&#xa1;" horiz-adv-x="365" 
d="M182 537q51 0 86.5 -36t35.5 -87q0 -87 -90 -118q90 -176 90 -293q0 -71 -36 -118.5t-86 -47.5t-86 47.5t-36 118.5q0 117 90 293q-90 31 -90 118q0 51 35.5 87t86.5 36z" />
    <glyph glyph-name="cent" unicode="&#xa2;" horiz-adv-x="552" 
d="M296 -7l-58 -185h-49l61 192q-97 23 -154 94t-57 167q0 51 17.5 98.5t51.5 88t92.5 65t133.5 24.5q41 0 83 -7l43 136h49l-46 -145q22 -4 40 -11v-175q-47 22 -90 28l-63 -199q62 -12 157 31v-171q-107 -39 -211 -31zM305 177l60 189q-53 -2 -85.5 -30.5t-32.5 -72.5
q0 -57 58 -86z" />
    <glyph glyph-name="sterling" unicode="&#xa3;" horiz-adv-x="615" 
d="M573 167l-27 -167h-505q37 145 79 281h-80v140h126q87 270 323 270q22 0 37 -2l62 -177q-32 8 -52 8q-95 0 -133 -99h91v-140h-137l-33 -114h249z" />
    <glyph glyph-name="currency" unicode="&#xa4;" horiz-adv-x="667" 
d="M333 570q69 0 113 -30l68 68l91 -91l-68 -68q30 -48 30 -113q0 -63 -30 -113l68 -68l-91 -91l-67 67q-53 -29 -114 -29q-62 0 -113 30l-68 -68l-91 91l68 68q-30 45 -30 113q0 70 30 113l-68 68l91 91l68 -68q45 30 113 30zM333 442q-44 0 -75 -31t-31 -75t31 -75t75 -31
t75 31t31 75t-31 75t-75 31z" />
    <glyph glyph-name="yen" unicode="&#xa5;" horiz-adv-x="729" 
d="M254 106h-219v80h219v79h-219v80h190l-210 337h257l117 -225l114 225h211l-214 -337h188v-80h-219v-79h219v-80h-219v-106h-215v106z" />
    <glyph glyph-name="brokenbar" unicode="&#xa6;" horiz-adv-x="635" 
d="M248 175h140v-350h-140v350zM248 675h140v-350h-140v350z" />
    <glyph glyph-name="section" unicode="&#xa7;" horiz-adv-x="646" 
d="M119 430q-35 48 -35 98q0 67 57 115.5t174 48.5q113 0 180 -42t67 -95q0 -30 -23 -50.5t-57 -20.5q-38 0 -62 24q-14 13 -21.5 38.5t-15.5 33.5q-20 20 -64 20q-39 0 -60 -17.5t-21 -39.5q0 -26 32.5 -46.5t76.5 -34t102.5 -43t97.5 -68.5q59 -59 59 -145
q0 -101 -74 -170q31 -45 31 -96q0 -82 -64.5 -126.5t-184.5 -44.5q-109 0 -171 38.5t-62 92.5q0 32 25 52.5t64 20.5q38 0 59 -21q16 -16 17.5 -40.5t9.5 -32.5q18 -18 67 -18q38 0 62 15.5t24 40.5q0 27 -33 49.5t-77 37.5t-101.5 44.5t-93.5 65.5q-28 28 -46 70t-18 86
q0 88 79 160zM457 97q26 30 26 61q0 33 -34.5 64.5t-77 51.5l-96 45.5t-77.5 43.5q-29 -29 -29 -53q0 -44 38 -74t121.5 -69.5t128.5 -69.5z" />
    <glyph glyph-name="dieresis" unicode="&#xa8;" 
d="M290 747q29 0 49.5 -20.5t20.5 -49.5t-20.5 -50t-49.5 -21t-50 21t-21 50t21 49.5t50 20.5zM45 747q29 0 49.5 -20.5t20.5 -49.5t-20.5 -50t-49.5 -21t-50 21t-21 50t21 49.5t50 20.5z" />
    <glyph glyph-name="copyright" unicode="&#xa9;" horiz-adv-x="740" 
d="M457 311l100 -24q-43 -141 -185 -141q-91 0 -147 58.5t-56 152.5q0 91 57.5 150t146.5 59q70 0 118.5 -36.5t61.5 -98.5l-96 -15q-18 78 -89 78q-42 0 -66 -37t-24 -100q0 -139 91 -139q69 0 88 93zM-3 356q0 154 109.5 263.5t263.5 109.5t263.5 -109.5t109.5 -263.5
t-109.5 -263t-263.5 -109t-263.5 109t-109.5 263zM69 356q0 -124 88 -212t213 -88t213 88t88 212q0 125 -88 213t-213 88t-213 -88t-88 -213z" />
    <glyph glyph-name="ordfeminine" unicode="&#xaa;" horiz-adv-x="396" 
d="M399 452l-29 -97q-53 -3 -78 2.5t-49 24.5q-55 -28 -108 -28q-52 0 -81.5 21.5t-29.5 58.5q0 32 22 52.5t49.5 28l66.5 17.5t59 20q0 19 -10.5 26t-37.5 7q-33 0 -62 -12t-78 -46v107q76 57 165 57q67 0 112.5 -28t45.5 -88v-88q0 -25 7 -30.5t36 -4.5zM221 458v33
l-27.5 -9.5l-24 -8.5t-17.5 -7t-12.5 -10t-3.5 -14q0 -13 11 -21.5t27 -8.5q18 0 50 16q-3 13 -3 30z" />
    <glyph glyph-name="guillemotleft" unicode="&#xab;" horiz-adv-x="708" 
d="M525 262l150 -262h-179l-149 262l149 262h179zM225 262l150 -262h-179l-149 262l149 262h179z" />
    <glyph glyph-name="logicalnot" unicode="&#xac;" horiz-adv-x="667" 
d="M56 524h555v-376h-139v237h-416v139z" />
    <glyph glyph-name="uni00AD" unicode="&#xad;" horiz-adv-x="448" 
d="M34 174v181h380v-181h-380z" />
    <glyph glyph-name="registered" unicode="&#xae;" horiz-adv-x="740" 
d="M547 158h-100l-33 64q-28 54 -51.5 76.5t-53.5 22.5h-27v-163h-81v397h200q58 0 90 -31.5t32 -79.5q0 -46 -28.5 -75.5t-78.5 -35.5v-2q25 -9 38.5 -24t45.5 -69zM282 384h78q78 0 78 55q0 54 -83 54h-73v-109zM-3 356q0 154 109.5 263.5t263.5 109.5t263.5 -109.5
t109.5 -263.5t-109.5 -263t-263.5 -109t-263.5 109t-109.5 263zM69 356q0 -124 88 -212t213 -88t213 88t88 212q0 125 -88 213t-213 88t-213 -88t-88 -213z" />
    <glyph glyph-name="macron" unicode="&#xaf;" 
d="M-24 661v78h382v-78h-382z" />
    <glyph glyph-name="degree" unicode="&#xb0;" horiz-adv-x="396" 
d="M198 729q58 0 99 -41t41 -99t-41 -99t-99 -41t-99 41t-41 99t41 99t99 41zM198 639q-21 0 -35.5 -14.5t-14.5 -35.5t14.5 -35.5t35.5 -14.5t35.5 14.5t14.5 35.5t-14.5 35.5t-35.5 14.5z" />
    <glyph glyph-name="plusminus" unicode="&#xb1;" horiz-adv-x="667" 
d="M56 104h555v-139h-555v139zM56 498h208v208h139v-208h208v-139h-208v-208h-139v208h-208v139z" />
    <glyph glyph-name="twosuperior" unicode="&#xb2;" horiz-adv-x="396" 
d="M368 432v-96h-343v15q115 95 145.5 127t30.5 66q0 20 -17.5 33.5t-43.5 13.5t-47.5 -12t-48.5 -42v109q66 45 141 45q67 0 108 -32t41 -85q0 -64 -85 -142h119z" />
    <glyph glyph-name="threesuperior" unicode="&#xb3;" horiz-adv-x="396" 
d="M66 588v83q49 20 108 20q68 0 109.5 -28t41.5 -74q0 -42 -44 -72q50 -31 50 -79t-39.5 -77.5t-102.5 -29.5q-67 0 -131 30v97q52 -34 86 -34q20 0 33 7.5t13 20.5q0 14 -14.5 22t-38.5 8q-1 0 -33 -2v72q11 -1 23 -1q27 0 45 8.5t18 21.5t-14.5 21t-37.5 8q-32 0 -72 -22
z" />
    <glyph glyph-name="acute" unicode="&#xb4;" 
d="M70 584l91 163h216l-198 -163h-109z" />
    <glyph glyph-name="mu" unicode="&#xb5;" horiz-adv-x="667" 
d="M59 528h199v-270q0 -53 15 -76q20 -30 61 -30q39 0 56 29q19 35 19 82v265h199v-528h-187v41h-2q-26 -50 -79 -50q-31 0 -53 13q-15 10 -27 33h-2v-233h-199v724z" />
    <glyph glyph-name="paragraph" unicode="&#xb6;" horiz-adv-x="854" 
d="M790 716v-155h-65v-760h-145v760h-81v-760h-145v499h-28q-145 0 -200 55q-60 60 -60 157q0 37 10.5 70t34.5 64.5t71.5 50.5t113.5 19h494z" />
    <glyph glyph-name="periodcentered" unicode="&#xb7;" horiz-adv-x="365" 
d="M183 463q51 0 86.5 -35.5t35.5 -86.5t-35.5 -87t-86.5 -36t-87 36t-36 87t36 86.5t87 35.5z" />
    <glyph glyph-name="cedilla" unicode="&#xb8;" 
d="M3 -233v79q107 -8 107 38q0 16 -16 26t-42 9l65 83l102 6l-27 -42q47 -3 74.5 -27t27.5 -62q0 -49 -46 -81.5t-129 -32.5q-68 0 -116 4z" />
    <glyph glyph-name="onesuperior" unicode="&#xb9;" horiz-adv-x="396" 
d="M125 336v351h145v-351h-145z" />
    <glyph glyph-name="ordmasculine" unicode="&#xba;" horiz-adv-x="448" 
d="M19 523q0 70 53.5 119.5t149.5 49.5q104 0 155.5 -50.5t51.5 -118.5q0 -69 -52.5 -118.5t-152.5 -49.5q-98 0 -151.5 47.5t-53.5 120.5zM166 523q0 -24 16 -39t42 -15t42 15t16 39q0 23 -16.5 38t-41.5 15t-41.5 -15t-16.5 -38z" />
    <glyph glyph-name="guillemotright" unicode="&#xbb;" horiz-adv-x="708" 
d="M483 262l-150 262h179l149 -262l-149 -262h-179zM183 262l-150 262h179l149 -262l-149 -262h-179z" />
    <glyph glyph-name="onequarter" unicode="&#xbc;" horiz-adv-x="917" 
d="M684 0v68h-170v88l183 199h122v-209h66v-78h-66v-68h-135zM591 146h93v102zM196 -24l411 731h107l-410 -731h-108zM139 336v351h145v-351h-145z" />
    <glyph glyph-name="onehalf" unicode="&#xbd;" horiz-adv-x="917" 
d="M875 96v-96h-343v15q115 95 145.5 127t30.5 66q0 20 -17.5 33.5t-43.5 13.5t-47.5 -12t-48.5 -42v109q66 45 141 45q67 0 108 -32t41 -85q0 -64 -85 -142h119zM196 -24l411 731h107l-410 -731h-108zM139 336v351h145v-351h-145z" />
    <glyph glyph-name="threequarters" unicode="&#xbe;" horiz-adv-x="917" 
d="M684 0v68h-170v88l183 199h122v-209h66v-78h-66v-68h-135zM591 146h93v102zM196 -24l411 731h107l-410 -731h-108zM80 588v83q49 20 108 20q68 0 109.5 -28t41.5 -74q0 -42 -44 -72q50 -31 50 -79t-39.5 -77.5t-102.5 -29.5q-67 0 -131 30v97q52 -34 86 -34q20 0 33 7.5
t13 20.5q0 14 -14.5 22t-38.5 8q-1 0 -33 -2v72q11 -1 23 -1q27 0 45 8.5t18 21.5t-14.5 21t-37.5 8q-32 0 -72 -22z" />
    <glyph glyph-name="questiondown" unicode="&#xbf;" horiz-adv-x="396" 
d="M318 414q0 -85 -86 -117q38 -36 38 -75q0 -23 -17 -66t-17 -65q0 -27 21 -46t60 -19q23 0 56 10l-59 -180q-54 -19 -104 -19q-74 0 -124 41.5t-50 112.5q0 39 23 78.5t50 67.5t50 62.5t23 63.5q0 16 -6 24t-14.5 9.5t-23.5 9t-28 20.5q-36 36 -36 88q0 51 35.5 87
t86.5 36t86.5 -36t35.5 -87z" />
    <glyph glyph-name="Agrave" unicode="&#xc0;" horiz-adv-x="896" 
d="M12 0l311 682h250l311 -682h-237l-45 111h-308l-45 -111h-237zM343 234h209l-104 270zM545 733h-109l-198 163h216z" />
    <glyph glyph-name="Aacute" unicode="&#xc1;" horiz-adv-x="896" 
d="M12 0l311 682h250l311 -682h-237l-45 111h-308l-45 -111h-237zM343 234h209l-104 270zM352 733l91 163h216l-198 -163h-109z" />
    <glyph glyph-name="Acircumflex" unicode="&#xc2;" horiz-adv-x="896" 
d="M12 0l311 682h250l311 -682h-237l-45 111h-308l-45 -111h-237zM343 234h209l-104 270zM569 908l73 -167h-120l-73 79l-74 -79h-120l74 167h240z" />
    <glyph glyph-name="Atilde" unicode="&#xc3;" horiz-adv-x="896" 
d="M12 0l311 682h250l311 -682h-237l-45 111h-308l-45 -111h-237zM343 234h209l-104 270zM344 742h-89q6 166 124 166q32 0 74 -18q42 -19 66 -19q30 0 33 37h91q-2 -79 -34 -122.5t-88 -43.5q-27 0 -76 18.5t-65 18.5q-28 0 -36 -37z" />
    <glyph glyph-name="Adieresis" unicode="&#xc4;" horiz-adv-x="896" 
d="M12 0l311 682h250l311 -682h-237l-45 111h-308l-45 -111h-237zM343 234h209l-104 270zM572 896q29 0 49.5 -20.5t20.5 -49.5t-20.5 -50t-49.5 -21t-50 21t-21 50t21 49.5t50 20.5zM327 896q29 0 49.5 -20.5t20.5 -49.5t-20.5 -50t-49.5 -21t-50 21t-21 50t21 49.5
t50 20.5z" />
    <glyph glyph-name="Aring" unicode="&#xc5;" horiz-adv-x="896" 
d="M12 0l311 682h250l311 -682h-237l-45 111h-308l-45 -111h-237zM343 234h209l-104 270zM449 922q41 0 70 -29t29 -70t-29 -70.5t-70 -29.5t-70.5 29.5t-29.5 70.5t29.5 70t70.5 29zM449 870q-19 0 -33 -14t-14 -33q0 -20 14 -34t33 -14t33.5 14.5t14.5 33.5t-14 33t-34 14
z" />
    <glyph glyph-name="AE" unicode="&#xc6;" horiz-adv-x="1013" 
d="M10 0l358 682h593v-144h-236v-120h214v-144h-214v-130h240v-144h-479v163h-161l-65 -163h-250zM370 278h116v290h-2z" />
    <glyph glyph-name="Ccedilla" unicode="&#xc7;" horiz-adv-x="760" 
d="M266 -81l64 82q-74 14 -130 49.5t-87.5 83.5t-47 99t-15.5 105q0 154 106 253.5t289 99.5q135 0 236 -46v-199q-99 63 -198 63q-90 0 -142 -45t-52 -123q0 -77 53 -122.5t143 -45.5q95 0 202 60v-182q-107 -60 -254 -60q-7 0 -11 1l-16 -26q47 -3 74.5 -27t27.5 -62
q0 -49 -46 -81.5t-129 -32.5q-68 0 -116 4v79q107 -8 107 38q0 16 -16 26t-42 9z" />
    <glyph glyph-name="Egrave" unicode="&#xc8;" horiz-adv-x="635" 
d="M72 0v682h511v-144h-272v-120h249v-144h-249v-130h276v-144h-515zM414 733h-109l-198 163h216z" />
    <glyph glyph-name="Eacute" unicode="&#xc9;" horiz-adv-x="635" 
d="M72 0v682h511v-144h-272v-120h249v-144h-249v-130h276v-144h-515zM221 733l91 163h216l-198 -163h-109z" />
    <glyph glyph-name="Ecircumflex" unicode="&#xca;" horiz-adv-x="635" 
d="M72 0v682h511v-144h-272v-120h249v-144h-249v-130h276v-144h-515zM438 908l73 -167h-120l-73 79l-74 -79h-120l74 167h240z" />
    <glyph glyph-name="Edieresis" unicode="&#xcb;" horiz-adv-x="635" 
d="M72 0v682h511v-144h-272v-120h249v-144h-249v-130h276v-144h-515zM441 896q29 0 49.5 -20.5t20.5 -49.5t-20.5 -50t-49.5 -21t-50 21t-21 50t21 49.5t50 20.5zM196 896q29 0 49.5 -20.5t20.5 -49.5t-20.5 -50t-49.5 -21t-50 21t-21 50t21 49.5t50 20.5z" />
    <glyph glyph-name="Igrave" unicode="&#xcc;" horiz-adv-x="385" 
d="M73 0v682h239v-682h-239zM289 733h-109l-198 163h216z" />
    <glyph glyph-name="Iacute" unicode="&#xcd;" horiz-adv-x="385" 
d="M73 0v682h239v-682h-239zM96 733l91 163h216l-198 -163h-109z" />
    <glyph glyph-name="Icircumflex" unicode="&#xce;" horiz-adv-x="385" 
d="M73 0v682h239v-682h-239zM313 908l73 -167h-120l-73 79l-74 -79h-120l74 167h240z" />
    <glyph glyph-name="Idieresis" unicode="&#xcf;" horiz-adv-x="385" 
d="M73 0v682h239v-682h-239zM316 896q29 0 49.5 -20.5t20.5 -49.5t-20.5 -50t-49.5 -21t-50 21t-21 50t21 49.5t50 20.5zM71 896q29 0 49.5 -20.5t20.5 -49.5t-20.5 -50t-49.5 -21t-50 21t-21 50t21 49.5t50 20.5z" />
    <glyph glyph-name="Eth" unicode="&#xd0;" horiz-adv-x="833" 
d="M73 0v288h-82v104h82v290h342q95 0 168.5 -32t116 -84.5t64 -112t21.5 -121.5q0 -61 -19 -118t-57 -106t-103 -78.5t-148 -29.5h-385zM312 162h63q87 0 129 44t42 135q0 77 -40.5 128t-129.5 51h-64v-128h132v-104h-132v-126z" />
    <glyph glyph-name="Ntilde" unicode="&#xd1;" horiz-adv-x="927" 
d="M75 0v682h204l345 -350l-13 350h242v-682h-204l-345 350l13 -350h-242zM359 742h-89q6 166 124 166q32 0 74 -18q42 -19 66 -19q30 0 33 37h91q-2 -79 -34 -122.5t-88 -43.5q-27 0 -76 18.5t-65 18.5q-28 0 -36 -37z" />
    <glyph glyph-name="Ograve" unicode="&#xd2;" horiz-adv-x="833" 
d="M46 341q0 70 23 131.5t67 111t116.5 78.5t164.5 29q93 0 166 -29.5t116.5 -79.5t66 -111.5t22.5 -129.5q0 -67 -22 -128t-65.5 -111.5t-116.5 -80.5t-167 -30q-119 0 -204.5 48.5t-126 126.5t-40.5 175zM285 341q0 -69 35.5 -109.5t96.5 -40.5t96.5 40.5t35.5 109.5
t-35.5 109.5t-96.5 40.5t-96.5 -40.5t-35.5 -109.5zM513 733h-109l-198 163h216z" />
    <glyph glyph-name="Oacute" unicode="&#xd3;" horiz-adv-x="833" 
d="M46 341q0 70 23 131.5t67 111t116.5 78.5t164.5 29q93 0 166 -29.5t116.5 -79.5t66 -111.5t22.5 -129.5q0 -67 -22 -128t-65.5 -111.5t-116.5 -80.5t-167 -30q-119 0 -204.5 48.5t-126 126.5t-40.5 175zM285 341q0 -69 35.5 -109.5t96.5 -40.5t96.5 40.5t35.5 109.5
t-35.5 109.5t-96.5 40.5t-96.5 -40.5t-35.5 -109.5zM320 733l91 163h216l-198 -163h-109z" />
    <glyph glyph-name="Ocircumflex" unicode="&#xd4;" horiz-adv-x="833" 
d="M46 341q0 70 23 131.5t67 111t116.5 78.5t164.5 29q93 0 166 -29.5t116.5 -79.5t66 -111.5t22.5 -129.5q0 -67 -22 -128t-65.5 -111.5t-116.5 -80.5t-167 -30q-119 0 -204.5 48.5t-126 126.5t-40.5 175zM285 341q0 -69 35.5 -109.5t96.5 -40.5t96.5 40.5t35.5 109.5
t-35.5 109.5t-96.5 40.5t-96.5 -40.5t-35.5 -109.5zM537 908l73 -167h-120l-73 79l-74 -79h-120l74 167h240z" />
    <glyph glyph-name="Otilde" unicode="&#xd5;" horiz-adv-x="833" 
d="M46 341q0 70 23 131.5t67 111t116.5 78.5t164.5 29q93 0 166 -29.5t116.5 -79.5t66 -111.5t22.5 -129.5q0 -67 -22 -128t-65.5 -111.5t-116.5 -80.5t-167 -30q-119 0 -204.5 48.5t-126 126.5t-40.5 175zM285 341q0 -69 35.5 -109.5t96.5 -40.5t96.5 40.5t35.5 109.5
t-35.5 109.5t-96.5 40.5t-96.5 -40.5t-35.5 -109.5zM312 742h-89q6 166 124 166q32 0 74 -18q42 -19 66 -19q30 0 33 37h91q-2 -79 -34 -122.5t-88 -43.5q-27 0 -76 18.5t-65 18.5q-28 0 -36 -37z" />
    <glyph glyph-name="Odieresis" unicode="&#xd6;" horiz-adv-x="833" 
d="M46 341q0 70 23 131.5t67 111t116.5 78.5t164.5 29q93 0 166 -29.5t116.5 -79.5t66 -111.5t22.5 -129.5q0 -67 -22 -128t-65.5 -111.5t-116.5 -80.5t-167 -30q-119 0 -204.5 48.5t-126 126.5t-40.5 175zM285 341q0 -69 35.5 -109.5t96.5 -40.5t96.5 40.5t35.5 109.5
t-35.5 109.5t-96.5 40.5t-96.5 -40.5t-35.5 -109.5zM540 896q29 0 49.5 -20.5t20.5 -49.5t-20.5 -50t-49.5 -21t-50 21t-21 50t21 49.5t50 20.5zM295 896q29 0 49.5 -20.5t20.5 -49.5t-20.5 -50t-49.5 -21t-50 21t-21 50t21 49.5t50 20.5z" />
    <glyph glyph-name="multiply" unicode="&#xd7;" horiz-adv-x="667" 
d="M234 335l-168 168l98 98l169 -169l169 169l98 -98l-168 -168l168 -168l-98 -98l-169 169l-169 -169l-98 98z" />
    <glyph glyph-name="Oslash" unicode="&#xd8;" horiz-adv-x="833" 
d="M536 412l-190 -202q23 -19 71 -19q61 0 96.5 40.5t35.5 109.5q0 42 -13 71zM641 631l65 70l54 -51l-62 -66q90 -96 90 -243q0 -67 -22 -128t-65.5 -111.5t-116.5 -80.5t-167 -30q-126 0 -224 59l-86 -92l-54 51l84 89q-91 97 -91 243q0 70 23 131.5t67 111t116.5 78.5
t164.5 29q131 0 224 -60zM298 271l191 199q-34 21 -72 21q-61 0 -96.5 -40.5t-35.5 -109.5q0 -42 13 -70z" />
    <glyph glyph-name="Ugrave" unicode="&#xd9;" horiz-adv-x="833" 
d="M782 682v-369q0 -152 -93 -237t-268 -85q-177 0 -273.5 78.5t-96.5 218.5v394h239v-364q0 -70 34 -106t91 -36q58 0 93 38.5t35 115.5v352h239zM513 733h-109l-198 163h216z" />
    <glyph glyph-name="Uacute" unicode="&#xda;" horiz-adv-x="833" 
d="M782 682v-369q0 -152 -93 -237t-268 -85q-177 0 -273.5 78.5t-96.5 218.5v394h239v-364q0 -70 34 -106t91 -36q58 0 93 38.5t35 115.5v352h239zM320 733l91 163h216l-198 -163h-109z" />
    <glyph glyph-name="Ucircumflex" unicode="&#xdb;" horiz-adv-x="833" 
d="M782 682v-369q0 -152 -93 -237t-268 -85q-177 0 -273.5 78.5t-96.5 218.5v394h239v-364q0 -70 34 -106t91 -36q58 0 93 38.5t35 115.5v352h239zM537 908l73 -167h-120l-73 79l-74 -79h-120l74 167h240z" />
    <glyph glyph-name="Udieresis" unicode="&#xdc;" horiz-adv-x="833" 
d="M782 682v-369q0 -152 -93 -237t-268 -85q-177 0 -273.5 78.5t-96.5 218.5v394h239v-364q0 -70 34 -106t91 -36q58 0 93 38.5t35 115.5v352h239zM540 896q29 0 49.5 -20.5t20.5 -49.5t-20.5 -50t-49.5 -21t-50 21t-21 50t21 49.5t50 20.5zM295 896q29 0 49.5 -20.5
t20.5 -49.5t-20.5 -50t-49.5 -21t-50 21t-21 50t21 49.5t50 20.5z" />
    <glyph glyph-name="Yacute" unicode="&#xdd;" horiz-adv-x="802" 
d="M281 0v304l-265 378h285l130 -226l127 226h234l-272 -387v-295h-239zM305 733l91 163h216l-198 -163h-109z" />
    <glyph glyph-name="Thorn" unicode="&#xde;" horiz-adv-x="667" 
d="M69 0v682h239v-122h113q138 0 204.5 -61.5t66.5 -153.5q0 -42 -14.5 -80t-46 -71.5t-89 -53t-134.5 -19.5h-100v-121h-239zM308 248h59q105 0 105 94q0 46 -25 68.5t-81 22.5h-58v-185z" />
    <glyph glyph-name="germandbls" unicode="&#xdf;" horiz-adv-x="698" 
d="M62 0v479q0 106 72.5 159t209.5 53q138 0 209 -48t71 -131q0 -77 -80 -120q122 -48 122 -187q0 -93 -54 -153.5t-153 -60.5q-62 0 -108 14v158q19 -8 34 -8q34 0 53.5 23t19.5 61q0 39 -20 61t-59 22h-16v127q69 5 69 64q0 32 -22.5 50.5t-61.5 18.5q-41 0 -59.5 -19.5
t-18.5 -62.5v-500h-208z" />
    <glyph glyph-name="agrave" unicode="&#xe0;" horiz-adv-x="625" 
d="M613 134l-38 -141q-79 -5 -121 5.5t-66 43.5q-75 -51 -173 -51q-84 0 -126 37t-42 92q0 50 40 90q30 30 138 59t133 48q-1 36 -20 50.5t-63 14.5q-52 0 -98.5 -20t-112.5 -70v155q110 90 249 90q101 0 169 -45t68 -138v-150q0 -42 10.5 -55.5t52.5 -14.5zM358 154v75
q-17 -12 -59 -24t-68 -28.5t-26 -48.5q0 -26 16.5 -42.5t42.5 -16.5q53 0 99 36q-5 15 -5 49zM409 584h-109l-198 163h216z" />
    <glyph glyph-name="aacute" unicode="&#xe1;" horiz-adv-x="625" 
d="M613 134l-38 -141q-79 -5 -121 5.5t-66 43.5q-75 -51 -173 -51q-84 0 -126 37t-42 92q0 50 40 90q30 30 138 59t133 48q-1 36 -20 50.5t-63 14.5q-52 0 -98.5 -20t-112.5 -70v155q110 90 249 90q101 0 169 -45t68 -138v-150q0 -42 10.5 -55.5t52.5 -14.5zM358 154v75
q-17 -12 -59 -24t-68 -28.5t-26 -48.5q0 -26 16.5 -42.5t42.5 -16.5q53 0 99 36q-5 15 -5 49zM216 584l91 163h216l-198 -163h-109z" />
    <glyph glyph-name="acircumflex" unicode="&#xe2;" horiz-adv-x="625" 
d="M613 134l-38 -141q-79 -5 -121 5.5t-66 43.5q-75 -51 -173 -51q-84 0 -126 37t-42 92q0 50 40 90q30 30 138 59t133 48q-1 36 -20 50.5t-63 14.5q-52 0 -98.5 -20t-112.5 -70v155q110 90 249 90q101 0 169 -45t68 -138v-150q0 -42 10.5 -55.5t52.5 -14.5zM358 154v75
q-17 -12 -59 -24t-68 -28.5t-26 -48.5q0 -26 16.5 -42.5t42.5 -16.5q53 0 99 36q-5 15 -5 49zM433 759l73 -167h-120l-73 79l-74 -79h-120l74 167h240z" />
    <glyph glyph-name="atilde" unicode="&#xe3;" horiz-adv-x="625" 
d="M613 134l-38 -141q-79 -5 -121 5.5t-66 43.5q-75 -51 -173 -51q-84 0 -126 37t-42 92q0 50 40 90q30 30 138 59t133 48q-1 36 -20 50.5t-63 14.5q-52 0 -98.5 -20t-112.5 -70v155q110 90 249 90q101 0 169 -45t68 -138v-150q0 -42 10.5 -55.5t52.5 -14.5zM358 154v75
q-17 -12 -59 -24t-68 -28.5t-26 -48.5q0 -26 16.5 -42.5t42.5 -16.5q53 0 99 36q-5 15 -5 49zM208 593h-89q6 166 124 166q32 0 74 -18q42 -19 66 -19q30 0 33 37h91q-2 -79 -34 -122.5t-88 -43.5q-27 0 -76 18.5t-65 18.5q-28 0 -36 -37z" />
    <glyph glyph-name="adieresis" unicode="&#xe4;" horiz-adv-x="625" 
d="M613 134l-38 -141q-79 -5 -121 5.5t-66 43.5q-75 -51 -173 -51q-84 0 -126 37t-42 92q0 50 40 90q30 30 138 59t133 48q-1 36 -20 50.5t-63 14.5q-52 0 -98.5 -20t-112.5 -70v155q110 90 249 90q101 0 169 -45t68 -138v-150q0 -42 10.5 -55.5t52.5 -14.5zM358 154v75
q-17 -12 -59 -24t-68 -28.5t-26 -48.5q0 -26 16.5 -42.5t42.5 -16.5q53 0 99 36q-5 15 -5 49zM436 747q29 0 49.5 -20.5t20.5 -49.5t-20.5 -50t-49.5 -21t-50 21t-21 50t21 49.5t50 20.5zM191 747q29 0 49.5 -20.5t20.5 -49.5t-20.5 -50t-49.5 -21t-50 21t-21 50t21 49.5
t50 20.5z" />
    <glyph glyph-name="aring" unicode="&#xe5;" horiz-adv-x="625" 
d="M613 134l-38 -141q-79 -5 -121 5.5t-66 43.5q-75 -51 -173 -51q-84 0 -126 37t-42 92q0 50 40 90q30 30 138 59t133 48q-1 36 -20 50.5t-63 14.5q-52 0 -98.5 -20t-112.5 -70v155q110 90 249 90q101 0 169 -45t68 -138v-150q0 -42 10.5 -55.5t52.5 -14.5zM358 154v75
q-17 -12 -59 -24t-68 -28.5t-26 -48.5q0 -26 16.5 -42.5t42.5 -16.5q53 0 99 36q-5 15 -5 49zM313 773q41 0 70 -29t29 -70t-29 -70.5t-70 -29.5t-70.5 29.5t-29.5 70.5t29.5 70t70.5 29zM313 721q-19 0 -33 -13.5t-14 -33.5t14 -34t33 -14t33.5 14t14.5 34q0 19 -14 33
t-34 14z" />
    <glyph glyph-name="ae" unicode="&#xe6;" horiz-adv-x="906" 
d="M63 291v156q111 90 241 90q98 0 169 -39q64 39 138 39q116 0 194.5 -85.5t65.5 -226.5h-346q3 -52 42 -80.5t98 -28.5q90 0 171 64l37 -85q-53 -56 -110.5 -80t-150.5 -24q-130 0 -207 62q-53 -34 -95 -48t-92 -14q-89 0 -131 39.5t-42 90.5q0 46 37 83q29 29 66.5 43
t96.5 29t110 38v13q0 29 -19.5 46t-53.5 17q-97 0 -219 -99zM351 219v12q-24 -11 -58 -23.5t-49.5 -19t-28 -21.5t-12.5 -38q0 -26 17.5 -41.5t46.5 -15.5q51 0 105 39q-21 47 -21 108zM518 303h182q1 55 -24.5 88t-68.5 33q-87 0 -89 -121z" />
    <glyph glyph-name="ccedilla" unicode="&#xe7;" horiz-adv-x="552" 
d="M162 -81l68 90q-88 26 -139.5 93t-51.5 159q0 51 17.5 99t52 88t92.5 64.5t132 24.5q89 0 170 -27v-175q-68 31 -132 31q-55 0 -89.5 -28.5t-34.5 -74.5q0 -45 36 -73t94 -28q52 0 130 33v-171q-91 -33 -168 -33q-14 0 -21 2l-16 -27q47 -3 74.5 -27t27.5 -62
q0 -49 -46 -81.5t-129 -32.5q-68 0 -116 4v79q107 -8 107 38q0 16 -16 26t-42 9z" />
    <glyph glyph-name="egrave" unicode="&#xe8;" horiz-adv-x="615" 
d="M543 180l38 -86q-89 -103 -244 -103q-134 0 -217 78.5t-83 196.5q0 116 78 193.5t195 77.5q124 0 202.5 -89t61.5 -223h-345q1 -41 43.5 -73t101.5 -32q82 0 169 60zM221 303h182q-2 118 -91 118q-43 0 -69 -29.5t-22 -88.5zM404 584h-109l-198 163h216z" />
    <glyph glyph-name="eacute" unicode="&#xe9;" horiz-adv-x="615" 
d="M543 180l38 -86q-89 -103 -244 -103q-134 0 -217 78.5t-83 196.5q0 116 78 193.5t195 77.5q124 0 202.5 -89t61.5 -223h-345q1 -41 43.5 -73t101.5 -32q82 0 169 60zM221 303h182q-2 118 -91 118q-43 0 -69 -29.5t-22 -88.5zM211 584l91 163h216l-198 -163h-109z" />
    <glyph glyph-name="ecircumflex" unicode="&#xea;" horiz-adv-x="615" 
d="M543 180l38 -86q-89 -103 -244 -103q-134 0 -217 78.5t-83 196.5q0 116 78 193.5t195 77.5q124 0 202.5 -89t61.5 -223h-345q1 -41 43.5 -73t101.5 -32q82 0 169 60zM221 303h182q-2 118 -91 118q-43 0 -69 -29.5t-22 -88.5zM428 759l73 -167h-120l-73 79l-74 -79h-120
l74 167h240z" />
    <glyph glyph-name="edieresis" unicode="&#xeb;" horiz-adv-x="615" 
d="M543 180l38 -86q-89 -103 -244 -103q-134 0 -217 78.5t-83 196.5q0 116 78 193.5t195 77.5q124 0 202.5 -89t61.5 -223h-345q1 -41 43.5 -73t101.5 -32q82 0 169 60zM221 303h182q-2 118 -91 118q-43 0 -69 -29.5t-22 -88.5zM431 747q29 0 49.5 -20.5t20.5 -49.5
t-20.5 -50t-49.5 -21t-50 21t-21 50t21 49.5t50 20.5zM186 747q29 0 49.5 -20.5t20.5 -49.5t-20.5 -50t-49.5 -21t-50 21t-21 50t21 49.5t50 20.5z" />
    <glyph glyph-name="igrave" unicode="&#xec;" 
d="M63 0v528h208v-528h-208zM263 584h-109l-198 163h216z" />
    <glyph glyph-name="iacute" unicode="&#xed;" 
d="M63 0v528h208v-528h-208zM70 584l91 163h216l-198 -163h-109z" />
    <glyph glyph-name="icircumflex" unicode="&#xee;" 
d="M63 0v528h208v-528h-208zM287 759l73 -167h-120l-73 79l-74 -79h-120l74 167h240z" />
    <glyph glyph-name="idieresis" unicode="&#xef;" 
d="M63 0v528h208v-528h-208zM290 747q29 0 49.5 -20.5t20.5 -49.5t-20.5 -50t-49.5 -21t-50 21t-21 50t21 49.5t50 20.5zM45 747q29 0 49.5 -20.5t20.5 -49.5t-20.5 -50t-49.5 -21t-50 21t-21 50t21 49.5t50 20.5z" />
    <glyph glyph-name="eth" unicode="&#xf0;" horiz-adv-x="699" 
d="M165 603l129 46q-49 47 -108 83v5h199q31 -16 58 -36l104 36l19 -50l-75 -28q89 -88 130 -178.5t41 -196.5q0 -77 -26 -135t-70 -91.5t-97 -50t-113 -16.5q-144 0 -230.5 75.5t-86.5 202.5q0 116 81 190.5t190 74.5q44 0 79 -16l2 2q-28 46 -57 83l-150 -53zM247 261
q0 -45 28.5 -72t74.5 -27t74.5 27t28.5 72t-28.5 73.5t-74.5 28.5t-74.5 -28.5t-28.5 -73.5z" />
    <glyph glyph-name="ntilde" unicode="&#xf1;" horiz-adv-x="677" 
d="M61 0v528h208v-69q43 42 82 60t88 18q86 0 133.5 -50t47.5 -138v-349h-208v289q0 77 -60 77q-49 0 -83 -57v-309h-208zM234 593h-89q6 166 124 166q32 0 74 -18q42 -19 66 -19q30 0 33 37h91q-2 -79 -34 -122.5t-88 -43.5q-27 0 -76 18.5t-65 18.5q-28 0 -36 -37z" />
    <glyph glyph-name="ograve" unicode="&#xf2;" horiz-adv-x="698" 
d="M38 264q0 53 18.5 100.5t55 87t97.5 62.5t140 23q81 0 143 -24.5t97.5 -64.5t53 -87t17.5 -97q0 -114 -80 -193.5t-229 -79.5q-81 0 -143.5 24t-98 64.5t-53.5 87t-18 97.5zM246 264q0 -45 28.5 -73.5t74.5 -28.5t74.5 28.5t28.5 73.5t-28.5 73.5t-74.5 28.5t-74.5 -28.5
t-28.5 -73.5zM446 584h-109l-198 163h216z" />
    <glyph glyph-name="oacute" unicode="&#xf3;" horiz-adv-x="698" 
d="M38 264q0 53 18.5 100.5t55 87t97.5 62.5t140 23q81 0 143 -24.5t97.5 -64.5t53 -87t17.5 -97q0 -114 -80 -193.5t-229 -79.5q-81 0 -143.5 24t-98 64.5t-53.5 87t-18 97.5zM246 264q0 -45 28.5 -73.5t74.5 -28.5t74.5 28.5t28.5 73.5t-28.5 73.5t-74.5 28.5t-74.5 -28.5
t-28.5 -73.5zM253 584l91 163h216l-198 -163h-109z" />
    <glyph glyph-name="ocircumflex" unicode="&#xf4;" horiz-adv-x="698" 
d="M38 264q0 53 18.5 100.5t55 87t97.5 62.5t140 23q81 0 143 -24.5t97.5 -64.5t53 -87t17.5 -97q0 -114 -80 -193.5t-229 -79.5q-81 0 -143.5 24t-98 64.5t-53.5 87t-18 97.5zM246 264q0 -45 28.5 -73.5t74.5 -28.5t74.5 28.5t28.5 73.5t-28.5 73.5t-74.5 28.5t-74.5 -28.5
t-28.5 -73.5zM470 759l73 -167h-120l-73 79l-74 -79h-120l74 167h240z" />
    <glyph glyph-name="otilde" unicode="&#xf5;" horiz-adv-x="698" 
d="M38 264q0 53 18.5 100.5t55 87t97.5 62.5t140 23q81 0 143 -24.5t97.5 -64.5t53 -87t17.5 -97q0 -114 -80 -193.5t-229 -79.5q-81 0 -143.5 24t-98 64.5t-53.5 87t-18 97.5zM246 264q0 -45 28.5 -73.5t74.5 -28.5t74.5 28.5t28.5 73.5t-28.5 73.5t-74.5 28.5t-74.5 -28.5
t-28.5 -73.5zM245 593h-89q6 166 124 166q32 0 74 -18q42 -19 66 -19q30 0 33 37h91q-2 -79 -34 -122.5t-88 -43.5q-27 0 -76 18.5t-65 18.5q-28 0 -36 -37z" />
    <glyph glyph-name="odieresis" unicode="&#xf6;" horiz-adv-x="698" 
d="M38 264q0 53 18.5 100.5t55 87t97.5 62.5t140 23q81 0 143 -24.5t97.5 -64.5t53 -87t17.5 -97q0 -114 -80 -193.5t-229 -79.5q-81 0 -143.5 24t-98 64.5t-53.5 87t-18 97.5zM246 264q0 -45 28.5 -73.5t74.5 -28.5t74.5 28.5t28.5 73.5t-28.5 73.5t-74.5 28.5t-74.5 -28.5
t-28.5 -73.5zM473 747q29 0 49.5 -20.5t20.5 -49.5t-20.5 -50t-49.5 -21t-50 21t-21 50t21 49.5t50 20.5zM228 747q29 0 49.5 -20.5t20.5 -49.5t-20.5 -50t-49.5 -21t-50 21t-21 50t21 49.5t50 20.5z" />
    <glyph glyph-name="divide" unicode="&#xf7;" horiz-adv-x="667" 
d="M334 613q33 0 56.5 -23.5t23.5 -56.5t-23.5 -56.5t-56.5 -23.5t-56.5 23.5t-23.5 56.5t23.5 56.5t56.5 23.5zM334 218q33 0 56.5 -23.5t23.5 -56.5t-23.5 -56.5t-56.5 -23.5t-56.5 23.5t-23.5 56.5t23.5 56.5t56.5 23.5zM56 266v139h556v-139h-556z" />
    <glyph glyph-name="oslash" unicode="&#xf8;" horiz-adv-x="698" 
d="M435 323l-139 -148q24 -13 53 -13q46 0 74.5 28t28.5 74q0 14 -5.5 33.5t-11.5 25.5zM532 493l71 75l33 -31l-66 -70q45 -38 67.5 -93.5t22.5 -109.5q0 -114 -80 -193.5t-229 -79.5q-112 0 -186 44l-72 -77l-33 32l68 72q-47 39 -68.5 93.5t-21.5 108.5q0 53 18.5 100.5
t55 87t97.5 62.5t140 23q108 0 183 -44zM262 205l140 149q-22 12 -53 12q-46 0 -74.5 -28.5t-28.5 -73.5q0 -30 16 -59z" />
    <glyph glyph-name="ugrave" unicode="&#xf9;" horiz-adv-x="698" 
d="M610 528v-334q0 -37 20.5 -51t57.5 -1l-54 -142q-41 -9 -90 -9q-60 0 -90.5 21t-43.5 70q-73 -91 -180 -91q-76 0 -128 47t-52 153v337h208v-286q0 -42 15 -61t47 -19q44 0 82 54v312h208zM446 584h-109l-198 163h216z" />
    <glyph glyph-name="uacute" unicode="&#xfa;" horiz-adv-x="698" 
d="M610 528v-334q0 -37 20.5 -51t57.5 -1l-54 -142q-41 -9 -90 -9q-60 0 -90.5 21t-43.5 70q-73 -91 -180 -91q-76 0 -128 47t-52 153v337h208v-286q0 -42 15 -61t47 -19q44 0 82 54v312h208zM253 584l91 163h216l-198 -163h-109z" />
    <glyph glyph-name="ucircumflex" unicode="&#xfb;" horiz-adv-x="698" 
d="M610 528v-334q0 -37 20.5 -51t57.5 -1l-54 -142q-41 -9 -90 -9q-60 0 -90.5 21t-43.5 70q-73 -91 -180 -91q-76 0 -128 47t-52 153v337h208v-286q0 -42 15 -61t47 -19q44 0 82 54v312h208zM470 759l73 -167h-120l-73 79l-74 -79h-120l74 167h240z" />
    <glyph glyph-name="udieresis" unicode="&#xfc;" horiz-adv-x="698" 
d="M610 528v-334q0 -37 20.5 -51t57.5 -1l-54 -142q-41 -9 -90 -9q-60 0 -90.5 21t-43.5 70q-73 -91 -180 -91q-76 0 -128 47t-52 153v337h208v-286q0 -42 15 -61t47 -19q44 0 82 54v312h208zM473 747q29 0 49.5 -20.5t20.5 -49.5t-20.5 -50t-49.5 -21t-50 21t-21 50
t21 49.5t50 20.5zM228 747q29 0 49.5 -20.5t20.5 -49.5t-20.5 -50t-49.5 -21t-50 21t-21 50t21 49.5t50 20.5z" />
    <glyph glyph-name="yacute" unicode="&#xfd;" horiz-adv-x="635" 
d="M71 -228l149 305l-209 451h224l97 -259l106 259h195l-365 -756h-197zM221 584l91 163h216l-198 -163h-109z" />
    <glyph glyph-name="thorn" unicode="&#xfe;" horiz-adv-x="698" 
d="M263 682v-205q73 60 154 60q104 0 172.5 -77t68.5 -193q0 -123 -75.5 -199.5t-195.5 -76.5q-64 0 -124 23v-242h-208v910h208zM263 350v-171q43 -17 78 -17q49 0 79 30t30 77t-30 75.5t-79 28.5q-36 0 -78 -23z" />
    <glyph glyph-name="ydieresis" unicode="&#xff;" horiz-adv-x="635" 
d="M71 -228l149 305l-209 451h224l97 -259l106 259h195l-365 -756h-197zM441 747q29 0 49.5 -20.5t20.5 -49.5t-20.5 -50t-49.5 -21t-50 21t-21 50t21 49.5t50 20.5zM196 747q29 0 49.5 -20.5t20.5 -49.5t-20.5 -50t-49.5 -21t-50 21t-21 50t21 49.5t50 20.5z" />
    <glyph glyph-name="dotlessi" unicode="&#x131;" 
d="M63 0v528h208v-528h-208z" />
    <glyph glyph-name="Lslash" unicode="&#x141;" horiz-adv-x="583" 
d="M73 0v206l-71 -62v125l71 62v351h239v-143l105 91v-125l-105 -91v-243h268v-171h-507z" />
    <glyph glyph-name="lslash" unicode="&#x142;" horiz-adv-x="406" 
d="M307 399v-399h-208v207l-84 -77v124l84 77v351h208v-160l84 77v-123z" />
    <glyph glyph-name="OE" unicode="&#x152;" horiz-adv-x="1033" 
d="M982 682v-144h-237v-120h215v-144h-215v-130h240v-144h-590q-163 0 -256 97t-93 245q0 149 93 244.5t240 95.5h603zM506 538h-36q-90 0 -137.5 -55t-47.5 -143q0 -92 50 -141.5t132 -49.5h39v389z" />
    <glyph glyph-name="oe" unicode="&#x153;" horiz-adv-x="1010" 
d="M934 176l41 -80q-41 -47 -102 -77q-56 -28 -142 -28q-117 0 -192 71q-81 -71 -204 -71q-129 0 -213 78t-84 199q0 116 83 192.5t210 76.5q108 0 211 -66q79 66 178 66q110 0 180.5 -75.5t70.5 -194.5v-42h-338q9 -50 46.5 -81.5t89.5 -31.5q76 0 165 64zM246 263
q0 -54 26.5 -85.5t72.5 -31.5t72 31.5t26 87.5q0 55 -26.5 86t-73.5 31q-45 0 -71 -32t-26 -87zM633 303h164v4v2q0 114 -79 114q-44 0 -68 -41q-14 -24 -17 -79z" />
    <glyph glyph-name="Scaron" unicode="&#x160;" horiz-adv-x="573" 
d="M50 38v185q100 -68 186 -68q32 0 50 13t18 34q0 20 -26 38t-63.5 37t-75 43.5t-63.5 67t-26 98.5q0 35 13 69t39.5 65.5t75.5 51t113 19.5q118 0 215 -73v-180q-96 89 -170 89q-30 0 -48 -12.5t-18 -34.5t27 -42t66 -39.5t77.5 -43.5t65.5 -65.5t27 -95.5
q0 -83 -61.5 -143t-185.5 -60q-135 0 -236 47zM167 741l-74 167h120l74 -79l73 79h120l-73 -167h-240z" />
    <glyph glyph-name="scaron" unicode="&#x161;" horiz-adv-x="500" 
d="M442 494v-139q-87 53 -145 53q-22 0 -35.5 -10t-13.5 -26q0 -18 18 -30t42 -19t57.5 -23.5t56.5 -39.5q47 -47 47 -109q0 -60 -50 -110t-153 -50q-138 0 -226 51v150q96 -72 166 -72q55 0 55 41q0 18 -23 33t-55.5 29t-64.5 32t-55 51t-23 76q0 61 50 108t163 47
q100 0 189 -43zM131 592l-74 167h120l74 -79l73 79h120l-73 -167h-240z" />
    <glyph glyph-name="Ydieresis" unicode="&#x178;" horiz-adv-x="802" 
d="M281 0v304l-265 378h285l130 -226l127 226h234l-272 -387v-295h-239zM525 896q29 0 49.5 -20.5t20.5 -49.5t-20.5 -50t-49.5 -21t-50 21t-21 50t21 49.5t50 20.5zM280 896q29 0 49.5 -20.5t20.5 -49.5t-20.5 -50t-49.5 -21t-50 21t-21 50t21 49.5t50 20.5z" />
    <glyph glyph-name="Zcaron" unicode="&#x17d;" horiz-adv-x="781" 
d="M36 0l349 520h-358v162h731l-349 -520h336v-162h-709zM271 741l-74 167h120l74 -79l73 79h120l-73 -167h-240z" />
    <glyph glyph-name="zcaron" unicode="&#x17e;" horiz-adv-x="615" 
d="M25 0l233 371h-216v157h539v-17l-229 -354h221v-157h-548zM188 592l-74 167h120l74 -79l73 79h120l-73 -167h-240z" />
    <glyph glyph-name="florin" unicode="&#x192;" horiz-adv-x="615" 
d="M455 455h97l-30 -140h-96l-92 -423q-27 -123 -175 -123q-72 0 -167 27l36 125q51 -16 76 -16q20 0 30.5 12.5t17.5 46.5l76 351h-93l29 140h95l22 102q15 71 57.5 102.5t118.5 31.5q81 0 169 -30l-35 -125q-48 19 -77 19q-20 0 -29.5 -13t-20.5 -53z" />
    <glyph glyph-name="circumflex" unicode="&#x2c6;" 
d="M287 759l73 -167h-120l-73 79l-74 -79h-120l74 167h240z" />
    <glyph glyph-name="caron" unicode="&#x2c7;" 
d="M47 592l-74 167h120l74 -79l73 79h120l-73 -167h-240z" />
    <glyph glyph-name="uni02C9" unicode="&#x2c9;" 
d="M-24 661v78h382v-78h-382z" />
    <glyph glyph-name="breve" unicode="&#x2d8;" 
d="M263 757h79q-10 -70 -59.5 -115.5t-115.5 -45.5q-67 0 -116 45t-59 116h78q21 -70 98 -70q74 0 95 70z" />
    <glyph glyph-name="dotaccent" unicode="&#x2d9;" 
d="M167 747q29 0 49.5 -20.5t20.5 -49.5t-20.5 -50t-49.5 -21t-50 21t-21 50t21 49.5t50 20.5z" />
    <glyph glyph-name="ring" unicode="&#x2da;" 
d="M167 773q41 0 70 -29t29 -70t-29 -70.5t-70 -29.5t-70.5 29.5t-29.5 70.5t29.5 70t70.5 29zM167 721q-19 0 -33 -13.5t-14 -33.5t14 -34t33 -14t33.5 14t14.5 34q0 19 -14 33t-34 14z" />
    <glyph glyph-name="ogonek" unicode="&#x2db;" 
d="M70 14h116q-14 -48 -14 -78q0 -39 25 -60.5t71 -21.5q32 0 87 14v-84q-84 -24 -144 -24q-79 0 -126.5 34t-47.5 90q0 49 33 130z" />
    <glyph glyph-name="tilde" unicode="&#x2dc;" 
d="M62 593h-89q6 166 124 166q32 0 74 -18q42 -19 66 -19q30 0 33 37h91q-2 -79 -34 -122.5t-88 -43.5q-27 0 -76 18.5t-65 18.5q-28 0 -36 -37z" />
    <glyph glyph-name="hungarumlaut" unicode="&#x2dd;" 
d="M264 577l91 163h216l-198 -163h-109zM8 577l91 163h216l-198 -163h-109z" />
    <glyph glyph-name="uni03A9" unicode="&#x3a9;" horiz-adv-x="869" 
d="M205 125v4q-61 37 -104 101t-43 150q0 129 104.5 217t273.5 88t271.5 -89t102.5 -216q0 -154 -150 -251v-4h164v-125h-344v97q74 43 114.5 102t40.5 151q0 88 -54.5 149.5t-143.5 61.5q-88 0 -145 -59.5t-57 -155.5q0 -85 42.5 -150.5t112.5 -98.5v-97h-346v125h161z" />
    <glyph glyph-name="uni03BC" unicode="&#x3bc;" horiz-adv-x="667" 
d="M59 528h199v-270q0 -53 15 -76q20 -30 61 -30q39 0 56 29q19 35 19 82v265h199v-528h-187v41h-2q-26 -50 -79 -50q-31 0 -53 13q-15 10 -27 33h-2v-233h-199v724z" />
    <glyph glyph-name="pi" unicode="&#x3c0;" horiz-adv-x="722" 
d="M693 379h-76v-212q0 -109 14 -167h-171q-20 24 -20 153v226h-138q-2 -94 -20.5 -211t-44.5 -168h-171q25 75 44.5 188t19.5 191q-79 0 -112 -9l-17 100q40 37 201 37h506z" />
    <glyph glyph-name="uni2010" unicode="&#x2010;" horiz-adv-x="448" 
d="M34 174v181h380v-181h-380z" />
    <glyph glyph-name="endash" unicode="&#x2013;" horiz-adv-x="500" 
d="M-6 404h512v-190h-512v190z" />
    <glyph glyph-name="emdash" unicode="&#x2014;" horiz-adv-x="1000" 
d="M-6 404h1012v-190h-1012v190z" />
    <glyph glyph-name="quoteleft" unicode="&#x2018;" horiz-adv-x="365" 
d="M326 691v-22q-51 -24 -74.5 -57t-25.5 -84q40 -4 63.5 -32t23.5 -70q0 -51 -36 -87t-87 -36q-57 0 -94.5 43.5t-37.5 110.5q0 95 72 164t196 70z" />
    <glyph glyph-name="quoteright" unicode="&#x2019;" horiz-adv-x="365" 
d="M39 303v22q51 24 74.5 57t25.5 84q-40 4 -63.5 32t-23.5 70q0 51 36 87t87 36q57 0 94.5 -43.5t37.5 -110.5q0 -95 -72 -164t-196 -70z" />
    <glyph glyph-name="quotesinglbase" unicode="&#x201a;" horiz-adv-x="365" 
d="M48 -161v22q51 24 74.5 57t25.5 84q-40 4 -63.5 32t-23.5 70q0 51 36 87t87 36q57 0 94.5 -43.5t37.5 -110.5q0 -95 -72 -164t-196 -70z" />
    <glyph glyph-name="quotedblleft" unicode="&#x201c;" horiz-adv-x="698" 
d="M662 691v-22q-51 -24 -74.5 -57t-25.5 -84q40 -4 63.5 -32t23.5 -70q0 -51 -36 -87t-87 -36q-57 0 -94.5 43.5t-37.5 110.5q0 95 72 164t196 70zM329 691v-22q-51 -24 -74.5 -57t-25.5 -84q40 -4 63.5 -32t23.5 -70q0 -51 -36 -87t-87 -36q-57 0 -94.5 43.5t-37.5 110.5
q0 95 72 164t196 70z" />
    <glyph glyph-name="quotedblright" unicode="&#x201d;" horiz-adv-x="698" 
d="M369 303v22q51 24 74.5 57t25.5 84q-40 4 -63.5 32t-23.5 70q0 51 36 87t87 36q57 0 94.5 -43.5t37.5 -110.5q0 -95 -72 -164t-196 -70zM36 303v22q51 24 74.5 57t25.5 84q-40 4 -63.5 32t-23.5 70q0 51 36 87t87 36q57 0 94.5 -43.5t37.5 -110.5q0 -95 -72 -164
t-196 -70z" />
    <glyph glyph-name="quotedblbase" unicode="&#x201e;" horiz-adv-x="698" 
d="M371 -161v22q51 24 74.5 57t25.5 84q-40 4 -63.5 32t-23.5 70q0 51 36 87t87 36q57 0 94.5 -43.5t37.5 -110.5q0 -95 -72 -164t-196 -70zM38 -161v22q51 24 74.5 57t25.5 84q-40 4 -63.5 32t-23.5 70q0 51 36 87t87 36q57 0 94.5 -43.5t37.5 -110.5q0 -95 -72 -164
t-196 -70z" />
    <glyph glyph-name="dagger" unicode="&#x2020;" horiz-adv-x="604" 
d="M354 450l170 40q32 8 41.5 -6.5t9.5 -83.5q0 -61 -9 -73.5t-38 -6.5l-174 40l55 -549q2 -25 -8 -33.5t-47 -8.5h-104q-41 0 -49 7t-6 32l55 552l-174 -40q-30 -7 -38.5 6.5t-8.5 75.5q0 66 9.5 80.5t41.5 7.5l170 -40l-36 196q-4 16 -1.5 26t22.5 14.5t67 4.5t66.5 -4
t22.5 -14t-1 -27z" />
    <glyph glyph-name="daggerdbl" unicode="&#x2021;" horiz-adv-x="615" 
d="M353 492l187 32q22 4 30.5 -1t8.5 -21v-100q0 -23 -7 -30t-25 -4l-194 34l29 -172l-29 -172l183 32q26 4 34.5 -2.5t8.5 -29.5v-100q0 -28 -28 -24l-198 34l33 -153q10 -46 -33 -46h-92q-17 0 -27.5 10.5t-6.5 26.5l34 162l-196 -34q-30 -5 -30 24v100q0 24 9 30.5
t34 1.5l183 -32l-28 172l28 172l-182 -32q-26 -5 -35 0.5t-9 31.5v100q0 29 34 23l192 -33l-34 163q-3 15 6.5 25.5t27.5 10.5h92q43 0 34 -40z" />
    <glyph glyph-name="bullet" unicode="&#x2022;" horiz-adv-x="500" 
d="M250 514q67 0 114.5 -47.5t47.5 -114.5t-47.5 -114.5t-114.5 -47.5t-114.5 47.5t-47.5 114.5t47.5 114.5t114.5 47.5z" />
    <glyph glyph-name="ellipsis" unicode="&#x2026;" horiz-adv-x="1000" 
d="M833 236q51 0 86.5 -35.5t35.5 -86.5t-35.5 -87t-86.5 -36t-87 36t-36 87t36 86.5t87 35.5zM500 236q51 0 86.5 -35.5t35.5 -86.5t-35.5 -87t-86.5 -36t-87 36t-36 87t36 86.5t87 35.5zM167 236q51 0 86.5 -35.5t35.5 -86.5t-35.5 -87t-86.5 -36t-87 36t-36 87t36 86.5
t87 35.5z" />
    <glyph glyph-name="perthousand" unicode="&#x2030;" horiz-adv-x="1271" 
d="M894 176q0 81 49 130.5t130 49.5q80 0 129 -49.5t49 -130.5t-49 -130.5t-129 -49.5q-81 0 -130 49.5t-49 130.5zM1015 176q0 -80 58 -80q57 0 57 80t-57 80q-58 0 -58 -80zM496 176q0 81 49 130.5t130 49.5q80 0 129 -49.5t49 -130.5t-49 -130.5t-129 -49.5
q-81 0 -130 49.5t-49 130.5zM617 176q0 -80 58 -80q57 0 57 80t-57 80q-58 0 -58 -80zM19 511q0 81 49 130.5t130 49.5q80 0 129 -49.5t49 -130.5t-49 -130.5t-129 -49.5q-81 0 -130 49.5t-49 130.5zM140 511q0 -80 58 -80q57 0 57 80t-57 80q-58 0 -58 -80zM175 -24
l411 731h107l-410 -731h-108z" />
    <glyph glyph-name="guilsinglleft" unicode="&#x2039;" horiz-adv-x="406" 
d="M223 262l150 -262h-179l-149 262l149 262h179z" />
    <glyph glyph-name="guilsinglright" unicode="&#x203a;" horiz-adv-x="406" 
d="M183 262l-150 262h179l149 -262l-149 -262h-179z" />
    <glyph glyph-name="fraction" unicode="&#x2044;" horiz-adv-x="125" 
d="M-200 -24l411 731h107l-410 -731h-108z" />
    <glyph glyph-name="Euro" unicode="&#x20ac;" horiz-adv-x="677" 
d="M600 222v-171q-88 -60 -212 -60q-69 0 -125 21t-92 57.5t-59 80.5t-34 95h-65l13 67h43q-1 9 -1 26q0 19 1 29h-56l13 67h52q26 116 109.5 186.5t210.5 70.5q113 0 197 -46v-189q-82 63 -170 63q-110 0 -149 -85h255l-14 -67h-258q-1 -8 -1 -26q0 -20 1 -29h248l-13 -67
h-215q41 -83 147 -83q85 0 174 60z" />
    <glyph glyph-name="afii61289" unicode="&#x2113;" horiz-adv-x="639" 
d="M539 216l73 -72q-92 -150 -270 -150q-169 0 -211 145q-1 1 -1 3.5t-1 3.5l-22 -14.5t-30 -18.5l-47 83l96 63v205q0 142 57.5 210.5t161.5 68.5q91 0 138 -52t47 -128q0 -88 -58.5 -166t-180.5 -172l2 -17q3 -37 28.5 -59t63.5 -22q44 0 84.5 25.5t69.5 63.5zM291 508
v-144q116 108 116 199q0 73 -53 73q-27 0 -45 -30.5t-18 -97.5z" />
    <glyph glyph-name="trademark" unicode="&#x2122;" horiz-adv-x="1000" 
d="M27 715h391v-95h-138v-303h-115v303h-138v95zM463 715h173l55 -218h2l57 218h172v-398h-110v281h-2l-73 -281h-90l-72 281h-2v-281h-110v398z" />
    <glyph glyph-name="Omega" unicode="&#x2126;" horiz-adv-x="869" 
d="M205 125v4q-61 37 -104 101t-43 150q0 129 104.5 217t273.5 88t271.5 -89t102.5 -216q0 -154 -150 -251v-4h164v-125h-344v97q74 43 114.5 102t40.5 151q0 88 -54.5 149.5t-143.5 61.5q-88 0 -145 -59.5t-57 -155.5q0 -85 42.5 -150.5t112.5 -98.5v-97h-346v125h161z" />
    <glyph glyph-name="estimated" unicode="&#x212e;" horiz-adv-x="844" 
d="M810 331h-629q-5 0 -5 -4v-190q0 -12 8 -22q101 -104 238 -104q148 0 251 116h55q-53 -62 -134 -98.5t-173 -36.5q-161 0 -274.5 102t-113.5 247t113.5 247t274.5 102t275 -102t114 -247v-10zM667 356v192q0 13 -9 22q-102 100 -236 100q-136 0 -237 -103q-9 -9 -9 -24
v-187q0 -6 5 -6h482q4 0 4 6z" />
    <glyph glyph-name="partialdiff" unicode="&#x2202;" horiz-adv-x="681" 
d="M112 592l-51 108q96 63 232 63q149 0 246.5 -104t97.5 -273q0 -175 -97 -283.5t-250 -108.5q-64 0 -115 23t-81 59t-45.5 75.5t-15.5 77.5q0 108 71 180.5t184 72.5q65 0 110.5 -28.5t68.5 -60.5h1v22q0 93 -53 156.5t-144 63.5q-84 0 -159 -43zM308 119h1q54 0 93 47
t48 107q-8 29 -41.5 58t-79.5 29q-54 0 -89.5 -38t-35.5 -93q0 -48 29.5 -79t74.5 -31z" />
    <glyph glyph-name="uni2206" unicode="&#x2206;" horiz-adv-x="781" 
d="M24 0v83l263 606h210l258 -606v-83h-731zM212 127h343l-117 283q-50 136 -54 148h-5q-5 -15 -49 -136z" />
    <glyph glyph-name="product" unicode="&#x220f;" horiz-adv-x="838" 
d="M817 536h-120v-629h-166v629h-225v-629h-167v629h-119v137h797v-137z" />
    <glyph glyph-name="summation" unicode="&#x2211;" horiz-adv-x="662" 
d="M646 -93h-624v91l267 288l-253 282v105h585v-136h-348v-4l211 -230l-232 -254v-4h394v-138z" />
    <glyph glyph-name="minus" unicode="&#x2212;" horiz-adv-x="667" 
d="M56 405h555v-139h-555v139z" />
    <glyph glyph-name="uni2215" unicode="&#x2215;" horiz-adv-x="125" 
d="M-200 -24l411 731h107l-410 -731h-108z" />
    <glyph glyph-name="uni2219" unicode="&#x2219;" horiz-adv-x="365" 
d="M183 463q51 0 86.5 -35.5t35.5 -86.5t-35.5 -87t-86.5 -36t-87 36t-36 87t36 86.5t87 35.5z" />
    <glyph glyph-name="radical" unicode="&#x221a;" horiz-adv-x="696" 
d="M722 804l-271 -949h-133l-179 418l-82 -33l-29 79l209 86l122 -315l27 -80l1 -1q3 12 9.5 41t10.5 45l194 709h121z" />
    <glyph glyph-name="infinity" unicode="&#x221e;" horiz-adv-x="819" 
d="M771 280v-1q0 -84 -52 -135t-122 -51q-103 0 -189 115q-45 -56 -89 -85.5t-102 -29.5q-69 0 -119.5 50.5t-50.5 129.5q0 81 51.5 132.5t128.5 51.5q103 0 189 -112q2 2 12.5 14l13.5 15.5t13.5 14.5t16 15.5l17 13.5t19.5 13l20 10.5t22.5 9t24 4.5t27.5 2
q72 -1 120.5 -50t48.5 -127zM227 177h2q37 0 68 25t66 68q-22 31 -31 42t-28 30t-38 26t-42 7q-39 0 -65 -28t-26 -74q0 -39 27.5 -67.5t66.5 -28.5zM593 375h-1q-9 0 -18.5 -1.5t-18.5 -6.5t-16 -8.5t-16.5 -12.5t-14 -12.5t-14.5 -15t-12.5 -14t-13.5 -15.5l-10 -13
q45 -57 75 -78t65 -21q39 0 62.5 30t23.5 65q0 45 -25 74t-66 29z" />
    <glyph glyph-name="integral" unicode="&#x222b;" horiz-adv-x="428" 
d="M420 825l-16 -100q-21 7 -42 7q-40 0 -59 -27q-27 -36 -27 -155q0 -77 9.5 -219t9.5 -233q0 -121 -39 -188q-48 -83 -153 -83q-61 0 -95 17l19 105q26 -11 51 -11q33 0 52 22q31 35 31 141q0 92 -9.5 238t-9.5 228q0 84 17 136t54 88q46 46 137 46q44 0 70 -12z" />
    <glyph glyph-name="approxequal" unicode="&#x2248;" horiz-adv-x="622" 
d="M526 461l58 -60q-72 -105 -160 -105q-52 0 -126 41q-58 32 -94 32q-33 0 -58.5 -18.5t-54.5 -53.5l-58 60q27 44 75 74t99 30q56 0 116 -35q27 -16 38 -22t26.5 -11t31.5 -5q53 0 107 73zM526 259l58 -60q-71 -104 -162 -104q-52 0 -124 41q-60 32 -93 32q-24 0 -46 -11
t-35 -24t-33 -37l-58 60q27 44 75.5 74t98.5 30q53 0 115 -35q6 -3 18 -10.5t18.5 -11t17.5 -8t21 -6.5t21 -2q30 0 54 17t54 55z" />
    <glyph glyph-name="notequal" unicode="&#x2260;" horiz-adv-x="622" 
d="M463 513l-39 -85h146v-89h-185l-60 -130h245v-90h-285l-56 -120l-73 33l40 87h-144v90h184l60 130h-244v89h283l54 118z" />
    <glyph glyph-name="lessequal" unicode="&#x2264;" horiz-adv-x="622" 
d="M569 119l-514 223v97l513 223v-100l-415 -170v-2l416 -172v-99zM570 -9h-518v92h518v-92z" />
    <glyph glyph-name="greaterequal" unicode="&#x2265;" horiz-adv-x="622" 
d="M55 662l514 -224v-96l-513 -223v99l415 172v2l-416 170v100zM565 -9h-512v92h512v-92z" />
    <glyph glyph-name="lozenge" unicode="&#x25ca;" horiz-adv-x="696" 
d="M645 335l-234 -383h-129l-232 383l233 384h129zM499 332l-133 230q-17 34 -19 41h-3q-6 -19 -20 -41l-129 -224l133 -231q13 -21 19 -39h3q13 30 19 39z" />
    <glyph glyph-name="fi" unicode="&#xfb01;" horiz-adv-x="760" 
d="M489 0v528h208v-528h-208zM593 706q29 0 49.5 -20.5t20.5 -49.5t-20.5 -49.5t-49.5 -20.5t-49.5 20.5t-20.5 49.5t20.5 49.5t49.5 20.5zM95 0v331h-84v132h84v15q0 59 20 102t55 66.5t74.5 34t85.5 10.5q83 0 149 -21v-142q-48 27 -96 27q-80 0 -80 -77v-15h103v-132
h-103v-331h-208z" />
    <glyph glyph-name="fl" unicode="&#xfb02;" horiz-adv-x="760" 
d="M95 0v331h-84v132h84q-3 65 17 111.5t56 71t76 35t86 10.5q100 0 158 -51v42h208v-682h-208v467q0 42 -28 65t-72 23q-93 0 -84 -92h101v-132h-102v-331h-208z" />
    <glyph glyph-name="one.superior" horiz-adv-x="396" 
d="M125 336v351h145v-351h-145z" />
    <glyph glyph-name="two.superior" horiz-adv-x="396" 
d="M368 432v-96h-343v15q115 95 145.5 127t30.5 66q0 20 -17.5 33.5t-43.5 13.5t-47.5 -12t-48.5 -42v109q66 45 141 45q67 0 108 -32t41 -85q0 -64 -85 -142h119z" />
    <glyph glyph-name="three.superior" horiz-adv-x="396" 
d="M66 588v83q49 20 108 20q68 0 109.5 -28t41.5 -74q0 -42 -44 -72q50 -31 50 -79t-39.5 -77.5t-102.5 -29.5q-67 0 -131 30v97q52 -34 86 -34q20 0 33 7.5t13 20.5q0 14 -14.5 22t-38.5 8q-1 0 -33 -2v72q11 -1 23 -1q27 0 45 8.5t18 21.5t-14.5 21t-37.5 8q-32 0 -72 -22
z" />
    <glyph glyph-name="a.superior" horiz-adv-x="396" 
d="M399 452l-29 -97q-53 -3 -78 2.5t-49 24.5q-55 -28 -108 -28q-52 0 -81.5 21.5t-29.5 58.5q0 32 22 52.5t49.5 28l66.5 17.5t59 20q0 19 -10.5 26t-37.5 7q-33 0 -62 -12t-78 -46v107q76 57 165 57q67 0 112.5 -28t45.5 -88v-88q0 -25 7 -30.5t36 -4.5zM221 458v33
l-27.5 -9.5l-24 -8.5t-17.5 -7t-12.5 -10t-3.5 -14q0 -13 11 -21.5t27 -8.5q18 0 50 16q-3 13 -3 30z" />
    <glyph glyph-name="o.superior" horiz-adv-x="448" 
d="M19 523q0 70 53.5 119.5t149.5 49.5q104 0 155.5 -50.5t51.5 -118.5q0 -69 -52.5 -118.5t-152.5 -49.5q-98 0 -151.5 47.5t-53.5 120.5zM166 523q0 -24 16 -39t42 -15t42 15t16 39q0 23 -16.5 38t-41.5 15t-41.5 -15t-16.5 -38z" />
    </font>
</defs>
</svg>
